G75*
%MOIN*%
%OFA0B0*%
%FSLAX25Y25*%
%IPPOS*%
%LPD*%
%AMOC8*
5,1,8,0,0,1.08239X$1,22.5*
%
%ADD10C,0.00000*%
%ADD11C,0.06500*%
%ADD12C,0.11524*%
%ADD13C,0.05500*%
%ADD14OC8,0.03453*%
%ADD15OC8,0.04043*%
D10*
X0005550Y0006800D02*
X0005550Y0203001D01*
X0407971Y0203001D01*
X0407971Y0006800D01*
X0005550Y0006800D01*
X0012538Y0019300D02*
X0012540Y0019448D01*
X0012546Y0019596D01*
X0012556Y0019744D01*
X0012570Y0019891D01*
X0012588Y0020038D01*
X0012609Y0020184D01*
X0012635Y0020330D01*
X0012665Y0020475D01*
X0012698Y0020619D01*
X0012736Y0020762D01*
X0012777Y0020904D01*
X0012822Y0021045D01*
X0012870Y0021185D01*
X0012923Y0021324D01*
X0012979Y0021461D01*
X0013039Y0021596D01*
X0013102Y0021730D01*
X0013169Y0021862D01*
X0013240Y0021992D01*
X0013314Y0022120D01*
X0013391Y0022246D01*
X0013472Y0022370D01*
X0013556Y0022492D01*
X0013643Y0022611D01*
X0013734Y0022728D01*
X0013828Y0022843D01*
X0013924Y0022955D01*
X0014024Y0023065D01*
X0014126Y0023171D01*
X0014232Y0023275D01*
X0014340Y0023376D01*
X0014451Y0023474D01*
X0014564Y0023570D01*
X0014680Y0023662D01*
X0014798Y0023751D01*
X0014919Y0023836D01*
X0015042Y0023919D01*
X0015167Y0023998D01*
X0015294Y0024074D01*
X0015423Y0024146D01*
X0015554Y0024215D01*
X0015687Y0024280D01*
X0015822Y0024341D01*
X0015958Y0024399D01*
X0016095Y0024454D01*
X0016234Y0024504D01*
X0016375Y0024551D01*
X0016516Y0024594D01*
X0016659Y0024634D01*
X0016803Y0024669D01*
X0016947Y0024701D01*
X0017093Y0024728D01*
X0017239Y0024752D01*
X0017386Y0024772D01*
X0017533Y0024788D01*
X0017680Y0024800D01*
X0017828Y0024808D01*
X0017976Y0024812D01*
X0018124Y0024812D01*
X0018272Y0024808D01*
X0018420Y0024800D01*
X0018567Y0024788D01*
X0018714Y0024772D01*
X0018861Y0024752D01*
X0019007Y0024728D01*
X0019153Y0024701D01*
X0019297Y0024669D01*
X0019441Y0024634D01*
X0019584Y0024594D01*
X0019725Y0024551D01*
X0019866Y0024504D01*
X0020005Y0024454D01*
X0020142Y0024399D01*
X0020278Y0024341D01*
X0020413Y0024280D01*
X0020546Y0024215D01*
X0020677Y0024146D01*
X0020806Y0024074D01*
X0020933Y0023998D01*
X0021058Y0023919D01*
X0021181Y0023836D01*
X0021302Y0023751D01*
X0021420Y0023662D01*
X0021536Y0023570D01*
X0021649Y0023474D01*
X0021760Y0023376D01*
X0021868Y0023275D01*
X0021974Y0023171D01*
X0022076Y0023065D01*
X0022176Y0022955D01*
X0022272Y0022843D01*
X0022366Y0022728D01*
X0022457Y0022611D01*
X0022544Y0022492D01*
X0022628Y0022370D01*
X0022709Y0022246D01*
X0022786Y0022120D01*
X0022860Y0021992D01*
X0022931Y0021862D01*
X0022998Y0021730D01*
X0023061Y0021596D01*
X0023121Y0021461D01*
X0023177Y0021324D01*
X0023230Y0021185D01*
X0023278Y0021045D01*
X0023323Y0020904D01*
X0023364Y0020762D01*
X0023402Y0020619D01*
X0023435Y0020475D01*
X0023465Y0020330D01*
X0023491Y0020184D01*
X0023512Y0020038D01*
X0023530Y0019891D01*
X0023544Y0019744D01*
X0023554Y0019596D01*
X0023560Y0019448D01*
X0023562Y0019300D01*
X0023560Y0019152D01*
X0023554Y0019004D01*
X0023544Y0018856D01*
X0023530Y0018709D01*
X0023512Y0018562D01*
X0023491Y0018416D01*
X0023465Y0018270D01*
X0023435Y0018125D01*
X0023402Y0017981D01*
X0023364Y0017838D01*
X0023323Y0017696D01*
X0023278Y0017555D01*
X0023230Y0017415D01*
X0023177Y0017276D01*
X0023121Y0017139D01*
X0023061Y0017004D01*
X0022998Y0016870D01*
X0022931Y0016738D01*
X0022860Y0016608D01*
X0022786Y0016480D01*
X0022709Y0016354D01*
X0022628Y0016230D01*
X0022544Y0016108D01*
X0022457Y0015989D01*
X0022366Y0015872D01*
X0022272Y0015757D01*
X0022176Y0015645D01*
X0022076Y0015535D01*
X0021974Y0015429D01*
X0021868Y0015325D01*
X0021760Y0015224D01*
X0021649Y0015126D01*
X0021536Y0015030D01*
X0021420Y0014938D01*
X0021302Y0014849D01*
X0021181Y0014764D01*
X0021058Y0014681D01*
X0020933Y0014602D01*
X0020806Y0014526D01*
X0020677Y0014454D01*
X0020546Y0014385D01*
X0020413Y0014320D01*
X0020278Y0014259D01*
X0020142Y0014201D01*
X0020005Y0014146D01*
X0019866Y0014096D01*
X0019725Y0014049D01*
X0019584Y0014006D01*
X0019441Y0013966D01*
X0019297Y0013931D01*
X0019153Y0013899D01*
X0019007Y0013872D01*
X0018861Y0013848D01*
X0018714Y0013828D01*
X0018567Y0013812D01*
X0018420Y0013800D01*
X0018272Y0013792D01*
X0018124Y0013788D01*
X0017976Y0013788D01*
X0017828Y0013792D01*
X0017680Y0013800D01*
X0017533Y0013812D01*
X0017386Y0013828D01*
X0017239Y0013848D01*
X0017093Y0013872D01*
X0016947Y0013899D01*
X0016803Y0013931D01*
X0016659Y0013966D01*
X0016516Y0014006D01*
X0016375Y0014049D01*
X0016234Y0014096D01*
X0016095Y0014146D01*
X0015958Y0014201D01*
X0015822Y0014259D01*
X0015687Y0014320D01*
X0015554Y0014385D01*
X0015423Y0014454D01*
X0015294Y0014526D01*
X0015167Y0014602D01*
X0015042Y0014681D01*
X0014919Y0014764D01*
X0014798Y0014849D01*
X0014680Y0014938D01*
X0014564Y0015030D01*
X0014451Y0015126D01*
X0014340Y0015224D01*
X0014232Y0015325D01*
X0014126Y0015429D01*
X0014024Y0015535D01*
X0013924Y0015645D01*
X0013828Y0015757D01*
X0013734Y0015872D01*
X0013643Y0015989D01*
X0013556Y0016108D01*
X0013472Y0016230D01*
X0013391Y0016354D01*
X0013314Y0016480D01*
X0013240Y0016608D01*
X0013169Y0016738D01*
X0013102Y0016870D01*
X0013039Y0017004D01*
X0012979Y0017139D01*
X0012923Y0017276D01*
X0012870Y0017415D01*
X0012822Y0017555D01*
X0012777Y0017696D01*
X0012736Y0017838D01*
X0012698Y0017981D01*
X0012665Y0018125D01*
X0012635Y0018270D01*
X0012609Y0018416D01*
X0012588Y0018562D01*
X0012570Y0018709D01*
X0012556Y0018856D01*
X0012546Y0019004D01*
X0012540Y0019152D01*
X0012538Y0019300D01*
X0388788Y0089300D02*
X0388790Y0089448D01*
X0388796Y0089596D01*
X0388806Y0089744D01*
X0388820Y0089891D01*
X0388838Y0090038D01*
X0388859Y0090184D01*
X0388885Y0090330D01*
X0388915Y0090475D01*
X0388948Y0090619D01*
X0388986Y0090762D01*
X0389027Y0090904D01*
X0389072Y0091045D01*
X0389120Y0091185D01*
X0389173Y0091324D01*
X0389229Y0091461D01*
X0389289Y0091596D01*
X0389352Y0091730D01*
X0389419Y0091862D01*
X0389490Y0091992D01*
X0389564Y0092120D01*
X0389641Y0092246D01*
X0389722Y0092370D01*
X0389806Y0092492D01*
X0389893Y0092611D01*
X0389984Y0092728D01*
X0390078Y0092843D01*
X0390174Y0092955D01*
X0390274Y0093065D01*
X0390376Y0093171D01*
X0390482Y0093275D01*
X0390590Y0093376D01*
X0390701Y0093474D01*
X0390814Y0093570D01*
X0390930Y0093662D01*
X0391048Y0093751D01*
X0391169Y0093836D01*
X0391292Y0093919D01*
X0391417Y0093998D01*
X0391544Y0094074D01*
X0391673Y0094146D01*
X0391804Y0094215D01*
X0391937Y0094280D01*
X0392072Y0094341D01*
X0392208Y0094399D01*
X0392345Y0094454D01*
X0392484Y0094504D01*
X0392625Y0094551D01*
X0392766Y0094594D01*
X0392909Y0094634D01*
X0393053Y0094669D01*
X0393197Y0094701D01*
X0393343Y0094728D01*
X0393489Y0094752D01*
X0393636Y0094772D01*
X0393783Y0094788D01*
X0393930Y0094800D01*
X0394078Y0094808D01*
X0394226Y0094812D01*
X0394374Y0094812D01*
X0394522Y0094808D01*
X0394670Y0094800D01*
X0394817Y0094788D01*
X0394964Y0094772D01*
X0395111Y0094752D01*
X0395257Y0094728D01*
X0395403Y0094701D01*
X0395547Y0094669D01*
X0395691Y0094634D01*
X0395834Y0094594D01*
X0395975Y0094551D01*
X0396116Y0094504D01*
X0396255Y0094454D01*
X0396392Y0094399D01*
X0396528Y0094341D01*
X0396663Y0094280D01*
X0396796Y0094215D01*
X0396927Y0094146D01*
X0397056Y0094074D01*
X0397183Y0093998D01*
X0397308Y0093919D01*
X0397431Y0093836D01*
X0397552Y0093751D01*
X0397670Y0093662D01*
X0397786Y0093570D01*
X0397899Y0093474D01*
X0398010Y0093376D01*
X0398118Y0093275D01*
X0398224Y0093171D01*
X0398326Y0093065D01*
X0398426Y0092955D01*
X0398522Y0092843D01*
X0398616Y0092728D01*
X0398707Y0092611D01*
X0398794Y0092492D01*
X0398878Y0092370D01*
X0398959Y0092246D01*
X0399036Y0092120D01*
X0399110Y0091992D01*
X0399181Y0091862D01*
X0399248Y0091730D01*
X0399311Y0091596D01*
X0399371Y0091461D01*
X0399427Y0091324D01*
X0399480Y0091185D01*
X0399528Y0091045D01*
X0399573Y0090904D01*
X0399614Y0090762D01*
X0399652Y0090619D01*
X0399685Y0090475D01*
X0399715Y0090330D01*
X0399741Y0090184D01*
X0399762Y0090038D01*
X0399780Y0089891D01*
X0399794Y0089744D01*
X0399804Y0089596D01*
X0399810Y0089448D01*
X0399812Y0089300D01*
X0399810Y0089152D01*
X0399804Y0089004D01*
X0399794Y0088856D01*
X0399780Y0088709D01*
X0399762Y0088562D01*
X0399741Y0088416D01*
X0399715Y0088270D01*
X0399685Y0088125D01*
X0399652Y0087981D01*
X0399614Y0087838D01*
X0399573Y0087696D01*
X0399528Y0087555D01*
X0399480Y0087415D01*
X0399427Y0087276D01*
X0399371Y0087139D01*
X0399311Y0087004D01*
X0399248Y0086870D01*
X0399181Y0086738D01*
X0399110Y0086608D01*
X0399036Y0086480D01*
X0398959Y0086354D01*
X0398878Y0086230D01*
X0398794Y0086108D01*
X0398707Y0085989D01*
X0398616Y0085872D01*
X0398522Y0085757D01*
X0398426Y0085645D01*
X0398326Y0085535D01*
X0398224Y0085429D01*
X0398118Y0085325D01*
X0398010Y0085224D01*
X0397899Y0085126D01*
X0397786Y0085030D01*
X0397670Y0084938D01*
X0397552Y0084849D01*
X0397431Y0084764D01*
X0397308Y0084681D01*
X0397183Y0084602D01*
X0397056Y0084526D01*
X0396927Y0084454D01*
X0396796Y0084385D01*
X0396663Y0084320D01*
X0396528Y0084259D01*
X0396392Y0084201D01*
X0396255Y0084146D01*
X0396116Y0084096D01*
X0395975Y0084049D01*
X0395834Y0084006D01*
X0395691Y0083966D01*
X0395547Y0083931D01*
X0395403Y0083899D01*
X0395257Y0083872D01*
X0395111Y0083848D01*
X0394964Y0083828D01*
X0394817Y0083812D01*
X0394670Y0083800D01*
X0394522Y0083792D01*
X0394374Y0083788D01*
X0394226Y0083788D01*
X0394078Y0083792D01*
X0393930Y0083800D01*
X0393783Y0083812D01*
X0393636Y0083828D01*
X0393489Y0083848D01*
X0393343Y0083872D01*
X0393197Y0083899D01*
X0393053Y0083931D01*
X0392909Y0083966D01*
X0392766Y0084006D01*
X0392625Y0084049D01*
X0392484Y0084096D01*
X0392345Y0084146D01*
X0392208Y0084201D01*
X0392072Y0084259D01*
X0391937Y0084320D01*
X0391804Y0084385D01*
X0391673Y0084454D01*
X0391544Y0084526D01*
X0391417Y0084602D01*
X0391292Y0084681D01*
X0391169Y0084764D01*
X0391048Y0084849D01*
X0390930Y0084938D01*
X0390814Y0085030D01*
X0390701Y0085126D01*
X0390590Y0085224D01*
X0390482Y0085325D01*
X0390376Y0085429D01*
X0390274Y0085535D01*
X0390174Y0085645D01*
X0390078Y0085757D01*
X0389984Y0085872D01*
X0389893Y0085989D01*
X0389806Y0086108D01*
X0389722Y0086230D01*
X0389641Y0086354D01*
X0389564Y0086480D01*
X0389490Y0086608D01*
X0389419Y0086738D01*
X0389352Y0086870D01*
X0389289Y0087004D01*
X0389229Y0087139D01*
X0389173Y0087276D01*
X0389120Y0087415D01*
X0389072Y0087555D01*
X0389027Y0087696D01*
X0388986Y0087838D01*
X0388948Y0087981D01*
X0388915Y0088125D01*
X0388885Y0088270D01*
X0388859Y0088416D01*
X0388838Y0088562D01*
X0388820Y0088709D01*
X0388806Y0088856D01*
X0388796Y0089004D01*
X0388790Y0089152D01*
X0388788Y0089300D01*
D11*
X0282300Y0066800D02*
X0276300Y0066800D01*
X0276300Y0056800D02*
X0282300Y0056800D01*
X0282300Y0041800D02*
X0276300Y0041800D01*
X0276300Y0031800D02*
X0282300Y0031800D01*
X0282300Y0021800D02*
X0276300Y0021800D01*
X0109300Y0066300D02*
X0109300Y0072300D01*
X0099300Y0072300D02*
X0099300Y0066300D01*
X0089300Y0066300D02*
X0089300Y0072300D01*
X0079300Y0072300D02*
X0079300Y0066300D01*
X0066800Y0054800D02*
X0066800Y0048800D01*
X0046800Y0048800D02*
X0046800Y0054800D01*
X0024800Y0051800D02*
X0018800Y0051800D01*
X0018800Y0041800D02*
X0024800Y0041800D01*
X0024800Y0061800D02*
X0018800Y0061800D01*
X0021800Y0191300D02*
X0021800Y0197300D01*
X0031800Y0197300D02*
X0031800Y0191300D01*
X0041800Y0191300D02*
X0041800Y0197300D01*
X0051800Y0197300D02*
X0051800Y0191300D01*
X0061800Y0191300D02*
X0061800Y0197300D01*
X0071800Y0197300D02*
X0071800Y0191300D01*
X0081800Y0191300D02*
X0081800Y0197300D01*
X0091800Y0197300D02*
X0091800Y0191300D01*
X0101800Y0191300D02*
X0101800Y0197300D01*
X0111800Y0197300D02*
X0111800Y0191300D01*
X0121800Y0191300D02*
X0121800Y0197300D01*
X0131800Y0197300D02*
X0131800Y0191300D01*
X0141800Y0191300D02*
X0141800Y0197300D01*
X0151800Y0197300D02*
X0151800Y0191300D01*
X0161800Y0191300D02*
X0161800Y0197300D01*
X0171800Y0197300D02*
X0171800Y0191300D01*
X0181800Y0191300D02*
X0181800Y0197300D01*
X0191800Y0197300D02*
X0191800Y0191300D01*
X0201800Y0191300D02*
X0201800Y0197300D01*
X0211800Y0197300D02*
X0211800Y0191300D01*
X0221800Y0191300D02*
X0221800Y0197300D01*
X0231800Y0197300D02*
X0231800Y0191300D01*
X0241800Y0191300D02*
X0241800Y0197300D01*
X0251800Y0197300D02*
X0251800Y0191300D01*
X0261800Y0191300D02*
X0261800Y0197300D01*
X0271800Y0197300D02*
X0271800Y0191300D01*
X0281800Y0191300D02*
X0281800Y0197300D01*
X0291800Y0197300D02*
X0291800Y0191300D01*
X0301800Y0191300D02*
X0301800Y0197300D01*
X0311800Y0197300D02*
X0311800Y0191300D01*
X0321800Y0191300D02*
X0321800Y0197300D01*
X0331800Y0197300D02*
X0331800Y0191300D01*
X0341800Y0191300D02*
X0341800Y0197300D01*
X0351800Y0197300D02*
X0351800Y0191300D01*
X0361800Y0191300D02*
X0361800Y0197300D01*
X0371800Y0197300D02*
X0371800Y0191300D01*
X0381800Y0191300D02*
X0381800Y0197300D01*
X0391800Y0197300D02*
X0391800Y0191300D01*
X0401800Y0191300D02*
X0401800Y0197300D01*
X0011800Y0197300D02*
X0011800Y0191300D01*
D12*
X0018050Y0019300D03*
X0394300Y0089300D03*
D13*
X0374300Y0089300D03*
X0319300Y0099300D03*
X0239300Y0099300D03*
X0161800Y0099300D03*
X0099300Y0051800D03*
X0089300Y0051800D03*
D14*
X0114300Y0051800D03*
X0114300Y0046800D03*
X0121800Y0046800D03*
X0121800Y0051800D03*
X0121800Y0031800D03*
X0114300Y0031800D03*
X0114300Y0026800D03*
X0121800Y0026800D03*
X0191800Y0034300D03*
X0239300Y0026800D03*
X0244300Y0026800D03*
X0249300Y0026800D03*
X0319300Y0064300D03*
X0339300Y0081800D03*
X0354300Y0086800D03*
X0359300Y0081800D03*
X0369300Y0081800D03*
X0344300Y0091800D03*
X0349300Y0111800D03*
X0336800Y0124300D03*
X0326800Y0124300D03*
X0316800Y0124300D03*
X0314300Y0111800D03*
X0319300Y0111800D03*
X0324300Y0111800D03*
X0304300Y0111800D03*
X0269300Y0111800D03*
X0256800Y0124300D03*
X0246800Y0124300D03*
X0236800Y0124300D03*
X0224300Y0111800D03*
X0209300Y0091800D03*
X0194300Y0086800D03*
X0199300Y0081800D03*
X0184300Y0091800D03*
X0189300Y0111800D03*
X0176800Y0124300D03*
X0166800Y0124300D03*
X0156800Y0124300D03*
X0144300Y0111800D03*
X0109300Y0111800D03*
X0096800Y0124300D03*
X0086800Y0124300D03*
X0076800Y0124300D03*
X0064300Y0111800D03*
X0029300Y0111800D03*
X0016800Y0124300D03*
X0008050Y0124300D03*
X0049300Y0091800D03*
X0034300Y0086800D03*
X0039300Y0081800D03*
X0104300Y0091800D03*
X0114300Y0086800D03*
X0119300Y0081800D03*
X0129300Y0091800D03*
X0191800Y0069300D03*
X0264300Y0091800D03*
X0274300Y0086800D03*
X0279300Y0081800D03*
X0289300Y0091800D03*
X0356800Y0066800D03*
X0369300Y0061800D03*
X0359300Y0026800D03*
X0371800Y0021800D03*
X0336800Y0021800D03*
X0331800Y0026800D03*
X0384300Y0111800D03*
X0396800Y0124300D03*
X0405550Y0124300D03*
X0396800Y0159300D03*
X0376800Y0159300D03*
X0356800Y0159300D03*
X0336800Y0159300D03*
X0316800Y0159300D03*
X0296800Y0159300D03*
X0276800Y0159300D03*
X0256800Y0159300D03*
X0236800Y0159300D03*
X0216800Y0159300D03*
X0196800Y0159300D03*
X0176800Y0159300D03*
X0156800Y0159300D03*
X0136800Y0159300D03*
X0116800Y0159300D03*
X0096800Y0159300D03*
X0076800Y0159300D03*
X0056800Y0159300D03*
X0036800Y0159300D03*
X0016800Y0159300D03*
X0016800Y0181800D03*
X0026800Y0181800D03*
X0036800Y0181800D03*
X0046800Y0181800D03*
X0056800Y0181800D03*
X0066800Y0181800D03*
X0076800Y0181800D03*
X0086800Y0181800D03*
X0096800Y0181800D03*
X0106800Y0181800D03*
X0116800Y0181800D03*
X0126800Y0181800D03*
X0136800Y0181800D03*
X0146800Y0181800D03*
X0156800Y0181800D03*
X0166800Y0181800D03*
X0176800Y0181800D03*
X0186800Y0181800D03*
X0196800Y0181800D03*
X0206800Y0181800D03*
X0216800Y0181800D03*
X0226800Y0181800D03*
X0236800Y0181800D03*
X0246800Y0181800D03*
X0256800Y0181800D03*
X0266800Y0181800D03*
X0276800Y0181800D03*
X0286800Y0181800D03*
X0296800Y0181800D03*
X0306800Y0181800D03*
X0316800Y0181800D03*
X0326800Y0181800D03*
X0336800Y0181800D03*
X0346800Y0181800D03*
X0356800Y0181800D03*
X0366800Y0181800D03*
X0376800Y0181800D03*
X0386800Y0181800D03*
X0395550Y0181800D03*
X0405550Y0181800D03*
X0008050Y0181800D03*
D15*
X0161800Y0086800D03*
X0239300Y0081800D03*
X0291800Y0051800D03*
X0309300Y0031800D03*
M02*
