G75*
%MOIN*%
%OFA0B0*%
%FSLAX25Y25*%
%IPPOS*%
%LPD*%
%AMOC8*
5,1,8,0,0,1.08239X$1,22.5*
%
%ADD10C,0.00000*%
%ADD11C,0.06000*%
%ADD12C,0.05000*%
%ADD13C,0.01600*%
%ADD14OC8,0.02953*%
%ADD15OC8,0.03543*%
%ADD16C,0.02400*%
D10*
X0005550Y0006800D02*
X0005550Y0203001D01*
X0407971Y0203001D01*
X0407971Y0006800D01*
X0005550Y0006800D01*
X0012538Y0019300D02*
X0012540Y0019448D01*
X0012546Y0019596D01*
X0012556Y0019744D01*
X0012570Y0019891D01*
X0012588Y0020038D01*
X0012609Y0020184D01*
X0012635Y0020330D01*
X0012665Y0020475D01*
X0012698Y0020619D01*
X0012736Y0020762D01*
X0012777Y0020904D01*
X0012822Y0021045D01*
X0012870Y0021185D01*
X0012923Y0021324D01*
X0012979Y0021461D01*
X0013039Y0021596D01*
X0013102Y0021730D01*
X0013169Y0021862D01*
X0013240Y0021992D01*
X0013314Y0022120D01*
X0013391Y0022246D01*
X0013472Y0022370D01*
X0013556Y0022492D01*
X0013643Y0022611D01*
X0013734Y0022728D01*
X0013828Y0022843D01*
X0013924Y0022955D01*
X0014024Y0023065D01*
X0014126Y0023171D01*
X0014232Y0023275D01*
X0014340Y0023376D01*
X0014451Y0023474D01*
X0014564Y0023570D01*
X0014680Y0023662D01*
X0014798Y0023751D01*
X0014919Y0023836D01*
X0015042Y0023919D01*
X0015167Y0023998D01*
X0015294Y0024074D01*
X0015423Y0024146D01*
X0015554Y0024215D01*
X0015687Y0024280D01*
X0015822Y0024341D01*
X0015958Y0024399D01*
X0016095Y0024454D01*
X0016234Y0024504D01*
X0016375Y0024551D01*
X0016516Y0024594D01*
X0016659Y0024634D01*
X0016803Y0024669D01*
X0016947Y0024701D01*
X0017093Y0024728D01*
X0017239Y0024752D01*
X0017386Y0024772D01*
X0017533Y0024788D01*
X0017680Y0024800D01*
X0017828Y0024808D01*
X0017976Y0024812D01*
X0018124Y0024812D01*
X0018272Y0024808D01*
X0018420Y0024800D01*
X0018567Y0024788D01*
X0018714Y0024772D01*
X0018861Y0024752D01*
X0019007Y0024728D01*
X0019153Y0024701D01*
X0019297Y0024669D01*
X0019441Y0024634D01*
X0019584Y0024594D01*
X0019725Y0024551D01*
X0019866Y0024504D01*
X0020005Y0024454D01*
X0020142Y0024399D01*
X0020278Y0024341D01*
X0020413Y0024280D01*
X0020546Y0024215D01*
X0020677Y0024146D01*
X0020806Y0024074D01*
X0020933Y0023998D01*
X0021058Y0023919D01*
X0021181Y0023836D01*
X0021302Y0023751D01*
X0021420Y0023662D01*
X0021536Y0023570D01*
X0021649Y0023474D01*
X0021760Y0023376D01*
X0021868Y0023275D01*
X0021974Y0023171D01*
X0022076Y0023065D01*
X0022176Y0022955D01*
X0022272Y0022843D01*
X0022366Y0022728D01*
X0022457Y0022611D01*
X0022544Y0022492D01*
X0022628Y0022370D01*
X0022709Y0022246D01*
X0022786Y0022120D01*
X0022860Y0021992D01*
X0022931Y0021862D01*
X0022998Y0021730D01*
X0023061Y0021596D01*
X0023121Y0021461D01*
X0023177Y0021324D01*
X0023230Y0021185D01*
X0023278Y0021045D01*
X0023323Y0020904D01*
X0023364Y0020762D01*
X0023402Y0020619D01*
X0023435Y0020475D01*
X0023465Y0020330D01*
X0023491Y0020184D01*
X0023512Y0020038D01*
X0023530Y0019891D01*
X0023544Y0019744D01*
X0023554Y0019596D01*
X0023560Y0019448D01*
X0023562Y0019300D01*
X0023560Y0019152D01*
X0023554Y0019004D01*
X0023544Y0018856D01*
X0023530Y0018709D01*
X0023512Y0018562D01*
X0023491Y0018416D01*
X0023465Y0018270D01*
X0023435Y0018125D01*
X0023402Y0017981D01*
X0023364Y0017838D01*
X0023323Y0017696D01*
X0023278Y0017555D01*
X0023230Y0017415D01*
X0023177Y0017276D01*
X0023121Y0017139D01*
X0023061Y0017004D01*
X0022998Y0016870D01*
X0022931Y0016738D01*
X0022860Y0016608D01*
X0022786Y0016480D01*
X0022709Y0016354D01*
X0022628Y0016230D01*
X0022544Y0016108D01*
X0022457Y0015989D01*
X0022366Y0015872D01*
X0022272Y0015757D01*
X0022176Y0015645D01*
X0022076Y0015535D01*
X0021974Y0015429D01*
X0021868Y0015325D01*
X0021760Y0015224D01*
X0021649Y0015126D01*
X0021536Y0015030D01*
X0021420Y0014938D01*
X0021302Y0014849D01*
X0021181Y0014764D01*
X0021058Y0014681D01*
X0020933Y0014602D01*
X0020806Y0014526D01*
X0020677Y0014454D01*
X0020546Y0014385D01*
X0020413Y0014320D01*
X0020278Y0014259D01*
X0020142Y0014201D01*
X0020005Y0014146D01*
X0019866Y0014096D01*
X0019725Y0014049D01*
X0019584Y0014006D01*
X0019441Y0013966D01*
X0019297Y0013931D01*
X0019153Y0013899D01*
X0019007Y0013872D01*
X0018861Y0013848D01*
X0018714Y0013828D01*
X0018567Y0013812D01*
X0018420Y0013800D01*
X0018272Y0013792D01*
X0018124Y0013788D01*
X0017976Y0013788D01*
X0017828Y0013792D01*
X0017680Y0013800D01*
X0017533Y0013812D01*
X0017386Y0013828D01*
X0017239Y0013848D01*
X0017093Y0013872D01*
X0016947Y0013899D01*
X0016803Y0013931D01*
X0016659Y0013966D01*
X0016516Y0014006D01*
X0016375Y0014049D01*
X0016234Y0014096D01*
X0016095Y0014146D01*
X0015958Y0014201D01*
X0015822Y0014259D01*
X0015687Y0014320D01*
X0015554Y0014385D01*
X0015423Y0014454D01*
X0015294Y0014526D01*
X0015167Y0014602D01*
X0015042Y0014681D01*
X0014919Y0014764D01*
X0014798Y0014849D01*
X0014680Y0014938D01*
X0014564Y0015030D01*
X0014451Y0015126D01*
X0014340Y0015224D01*
X0014232Y0015325D01*
X0014126Y0015429D01*
X0014024Y0015535D01*
X0013924Y0015645D01*
X0013828Y0015757D01*
X0013734Y0015872D01*
X0013643Y0015989D01*
X0013556Y0016108D01*
X0013472Y0016230D01*
X0013391Y0016354D01*
X0013314Y0016480D01*
X0013240Y0016608D01*
X0013169Y0016738D01*
X0013102Y0016870D01*
X0013039Y0017004D01*
X0012979Y0017139D01*
X0012923Y0017276D01*
X0012870Y0017415D01*
X0012822Y0017555D01*
X0012777Y0017696D01*
X0012736Y0017838D01*
X0012698Y0017981D01*
X0012665Y0018125D01*
X0012635Y0018270D01*
X0012609Y0018416D01*
X0012588Y0018562D01*
X0012570Y0018709D01*
X0012556Y0018856D01*
X0012546Y0019004D01*
X0012540Y0019152D01*
X0012538Y0019300D01*
X0388788Y0089300D02*
X0388790Y0089448D01*
X0388796Y0089596D01*
X0388806Y0089744D01*
X0388820Y0089891D01*
X0388838Y0090038D01*
X0388859Y0090184D01*
X0388885Y0090330D01*
X0388915Y0090475D01*
X0388948Y0090619D01*
X0388986Y0090762D01*
X0389027Y0090904D01*
X0389072Y0091045D01*
X0389120Y0091185D01*
X0389173Y0091324D01*
X0389229Y0091461D01*
X0389289Y0091596D01*
X0389352Y0091730D01*
X0389419Y0091862D01*
X0389490Y0091992D01*
X0389564Y0092120D01*
X0389641Y0092246D01*
X0389722Y0092370D01*
X0389806Y0092492D01*
X0389893Y0092611D01*
X0389984Y0092728D01*
X0390078Y0092843D01*
X0390174Y0092955D01*
X0390274Y0093065D01*
X0390376Y0093171D01*
X0390482Y0093275D01*
X0390590Y0093376D01*
X0390701Y0093474D01*
X0390814Y0093570D01*
X0390930Y0093662D01*
X0391048Y0093751D01*
X0391169Y0093836D01*
X0391292Y0093919D01*
X0391417Y0093998D01*
X0391544Y0094074D01*
X0391673Y0094146D01*
X0391804Y0094215D01*
X0391937Y0094280D01*
X0392072Y0094341D01*
X0392208Y0094399D01*
X0392345Y0094454D01*
X0392484Y0094504D01*
X0392625Y0094551D01*
X0392766Y0094594D01*
X0392909Y0094634D01*
X0393053Y0094669D01*
X0393197Y0094701D01*
X0393343Y0094728D01*
X0393489Y0094752D01*
X0393636Y0094772D01*
X0393783Y0094788D01*
X0393930Y0094800D01*
X0394078Y0094808D01*
X0394226Y0094812D01*
X0394374Y0094812D01*
X0394522Y0094808D01*
X0394670Y0094800D01*
X0394817Y0094788D01*
X0394964Y0094772D01*
X0395111Y0094752D01*
X0395257Y0094728D01*
X0395403Y0094701D01*
X0395547Y0094669D01*
X0395691Y0094634D01*
X0395834Y0094594D01*
X0395975Y0094551D01*
X0396116Y0094504D01*
X0396255Y0094454D01*
X0396392Y0094399D01*
X0396528Y0094341D01*
X0396663Y0094280D01*
X0396796Y0094215D01*
X0396927Y0094146D01*
X0397056Y0094074D01*
X0397183Y0093998D01*
X0397308Y0093919D01*
X0397431Y0093836D01*
X0397552Y0093751D01*
X0397670Y0093662D01*
X0397786Y0093570D01*
X0397899Y0093474D01*
X0398010Y0093376D01*
X0398118Y0093275D01*
X0398224Y0093171D01*
X0398326Y0093065D01*
X0398426Y0092955D01*
X0398522Y0092843D01*
X0398616Y0092728D01*
X0398707Y0092611D01*
X0398794Y0092492D01*
X0398878Y0092370D01*
X0398959Y0092246D01*
X0399036Y0092120D01*
X0399110Y0091992D01*
X0399181Y0091862D01*
X0399248Y0091730D01*
X0399311Y0091596D01*
X0399371Y0091461D01*
X0399427Y0091324D01*
X0399480Y0091185D01*
X0399528Y0091045D01*
X0399573Y0090904D01*
X0399614Y0090762D01*
X0399652Y0090619D01*
X0399685Y0090475D01*
X0399715Y0090330D01*
X0399741Y0090184D01*
X0399762Y0090038D01*
X0399780Y0089891D01*
X0399794Y0089744D01*
X0399804Y0089596D01*
X0399810Y0089448D01*
X0399812Y0089300D01*
X0399810Y0089152D01*
X0399804Y0089004D01*
X0399794Y0088856D01*
X0399780Y0088709D01*
X0399762Y0088562D01*
X0399741Y0088416D01*
X0399715Y0088270D01*
X0399685Y0088125D01*
X0399652Y0087981D01*
X0399614Y0087838D01*
X0399573Y0087696D01*
X0399528Y0087555D01*
X0399480Y0087415D01*
X0399427Y0087276D01*
X0399371Y0087139D01*
X0399311Y0087004D01*
X0399248Y0086870D01*
X0399181Y0086738D01*
X0399110Y0086608D01*
X0399036Y0086480D01*
X0398959Y0086354D01*
X0398878Y0086230D01*
X0398794Y0086108D01*
X0398707Y0085989D01*
X0398616Y0085872D01*
X0398522Y0085757D01*
X0398426Y0085645D01*
X0398326Y0085535D01*
X0398224Y0085429D01*
X0398118Y0085325D01*
X0398010Y0085224D01*
X0397899Y0085126D01*
X0397786Y0085030D01*
X0397670Y0084938D01*
X0397552Y0084849D01*
X0397431Y0084764D01*
X0397308Y0084681D01*
X0397183Y0084602D01*
X0397056Y0084526D01*
X0396927Y0084454D01*
X0396796Y0084385D01*
X0396663Y0084320D01*
X0396528Y0084259D01*
X0396392Y0084201D01*
X0396255Y0084146D01*
X0396116Y0084096D01*
X0395975Y0084049D01*
X0395834Y0084006D01*
X0395691Y0083966D01*
X0395547Y0083931D01*
X0395403Y0083899D01*
X0395257Y0083872D01*
X0395111Y0083848D01*
X0394964Y0083828D01*
X0394817Y0083812D01*
X0394670Y0083800D01*
X0394522Y0083792D01*
X0394374Y0083788D01*
X0394226Y0083788D01*
X0394078Y0083792D01*
X0393930Y0083800D01*
X0393783Y0083812D01*
X0393636Y0083828D01*
X0393489Y0083848D01*
X0393343Y0083872D01*
X0393197Y0083899D01*
X0393053Y0083931D01*
X0392909Y0083966D01*
X0392766Y0084006D01*
X0392625Y0084049D01*
X0392484Y0084096D01*
X0392345Y0084146D01*
X0392208Y0084201D01*
X0392072Y0084259D01*
X0391937Y0084320D01*
X0391804Y0084385D01*
X0391673Y0084454D01*
X0391544Y0084526D01*
X0391417Y0084602D01*
X0391292Y0084681D01*
X0391169Y0084764D01*
X0391048Y0084849D01*
X0390930Y0084938D01*
X0390814Y0085030D01*
X0390701Y0085126D01*
X0390590Y0085224D01*
X0390482Y0085325D01*
X0390376Y0085429D01*
X0390274Y0085535D01*
X0390174Y0085645D01*
X0390078Y0085757D01*
X0389984Y0085872D01*
X0389893Y0085989D01*
X0389806Y0086108D01*
X0389722Y0086230D01*
X0389641Y0086354D01*
X0389564Y0086480D01*
X0389490Y0086608D01*
X0389419Y0086738D01*
X0389352Y0086870D01*
X0389289Y0087004D01*
X0389229Y0087139D01*
X0389173Y0087276D01*
X0389120Y0087415D01*
X0389072Y0087555D01*
X0389027Y0087696D01*
X0388986Y0087838D01*
X0388948Y0087981D01*
X0388915Y0088125D01*
X0388885Y0088270D01*
X0388859Y0088416D01*
X0388838Y0088562D01*
X0388820Y0088709D01*
X0388806Y0088856D01*
X0388796Y0089004D01*
X0388790Y0089152D01*
X0388788Y0089300D01*
D11*
X0282300Y0066800D02*
X0276300Y0066800D01*
X0276300Y0056800D02*
X0282300Y0056800D01*
X0282300Y0041800D02*
X0276300Y0041800D01*
X0276300Y0031800D02*
X0282300Y0031800D01*
X0282300Y0021800D02*
X0276300Y0021800D01*
X0109300Y0066300D02*
X0109300Y0072300D01*
X0099300Y0072300D02*
X0099300Y0066300D01*
X0089300Y0066300D02*
X0089300Y0072300D01*
X0079300Y0072300D02*
X0079300Y0066300D01*
X0066800Y0054800D02*
X0066800Y0048800D01*
X0046800Y0048800D02*
X0046800Y0054800D01*
X0024800Y0051800D02*
X0018800Y0051800D01*
X0018800Y0041800D02*
X0024800Y0041800D01*
X0024800Y0061800D02*
X0018800Y0061800D01*
X0021800Y0191300D02*
X0021800Y0197300D01*
X0031800Y0197300D02*
X0031800Y0191300D01*
X0041800Y0191300D02*
X0041800Y0197300D01*
X0051800Y0197300D02*
X0051800Y0191300D01*
X0061800Y0191300D02*
X0061800Y0197300D01*
X0071800Y0197300D02*
X0071800Y0191300D01*
X0081800Y0191300D02*
X0081800Y0197300D01*
X0091800Y0197300D02*
X0091800Y0191300D01*
X0101800Y0191300D02*
X0101800Y0197300D01*
X0111800Y0197300D02*
X0111800Y0191300D01*
X0121800Y0191300D02*
X0121800Y0197300D01*
X0131800Y0197300D02*
X0131800Y0191300D01*
X0141800Y0191300D02*
X0141800Y0197300D01*
X0151800Y0197300D02*
X0151800Y0191300D01*
X0161800Y0191300D02*
X0161800Y0197300D01*
X0171800Y0197300D02*
X0171800Y0191300D01*
X0181800Y0191300D02*
X0181800Y0197300D01*
X0191800Y0197300D02*
X0191800Y0191300D01*
X0201800Y0191300D02*
X0201800Y0197300D01*
X0211800Y0197300D02*
X0211800Y0191300D01*
X0221800Y0191300D02*
X0221800Y0197300D01*
X0231800Y0197300D02*
X0231800Y0191300D01*
X0241800Y0191300D02*
X0241800Y0197300D01*
X0251800Y0197300D02*
X0251800Y0191300D01*
X0261800Y0191300D02*
X0261800Y0197300D01*
X0271800Y0197300D02*
X0271800Y0191300D01*
X0281800Y0191300D02*
X0281800Y0197300D01*
X0291800Y0197300D02*
X0291800Y0191300D01*
X0301800Y0191300D02*
X0301800Y0197300D01*
X0311800Y0197300D02*
X0311800Y0191300D01*
X0321800Y0191300D02*
X0321800Y0197300D01*
X0331800Y0197300D02*
X0331800Y0191300D01*
X0341800Y0191300D02*
X0341800Y0197300D01*
X0351800Y0197300D02*
X0351800Y0191300D01*
X0361800Y0191300D02*
X0361800Y0197300D01*
X0371800Y0197300D02*
X0371800Y0191300D01*
X0381800Y0191300D02*
X0381800Y0197300D01*
X0391800Y0197300D02*
X0391800Y0191300D01*
X0401800Y0191300D02*
X0401800Y0197300D01*
X0011800Y0197300D02*
X0011800Y0191300D01*
D12*
X0161800Y0099300D03*
X0239300Y0099300D03*
X0319300Y0099300D03*
X0374300Y0089300D03*
X0099300Y0051800D03*
X0089300Y0051800D03*
D13*
X0093600Y0051800D01*
X0093600Y0052138D01*
X0093494Y0052807D01*
X0093285Y0053451D01*
X0092978Y0054054D01*
X0092580Y0054601D01*
X0092101Y0055080D01*
X0091554Y0055478D01*
X0090951Y0055785D01*
X0090307Y0055994D01*
X0089638Y0056100D01*
X0089300Y0056100D01*
X0089300Y0051800D01*
X0089300Y0051800D01*
X0089300Y0051800D01*
X0093600Y0051800D01*
X0093600Y0051462D01*
X0093494Y0050793D01*
X0093285Y0050149D01*
X0092978Y0049546D01*
X0092580Y0048999D01*
X0092101Y0048520D01*
X0091554Y0048122D01*
X0090951Y0047815D01*
X0090307Y0047606D01*
X0089638Y0047500D01*
X0089300Y0047500D01*
X0089300Y0051800D01*
X0089300Y0051800D01*
X0089300Y0051800D01*
X0085000Y0051800D01*
X0085000Y0052138D01*
X0085106Y0052807D01*
X0085315Y0053451D01*
X0085622Y0054054D01*
X0086020Y0054601D01*
X0086499Y0055080D01*
X0087046Y0055478D01*
X0087649Y0055785D01*
X0088293Y0055994D01*
X0088962Y0056100D01*
X0089300Y0056100D01*
X0089300Y0051800D01*
X0089300Y0047500D01*
X0088962Y0047500D01*
X0088293Y0047606D01*
X0087649Y0047815D01*
X0087046Y0048122D01*
X0086499Y0048520D01*
X0086020Y0048999D01*
X0085622Y0049546D01*
X0085315Y0050149D01*
X0085106Y0050793D01*
X0085000Y0051462D01*
X0085000Y0051800D01*
X0089300Y0051800D01*
X0089300Y0051558D02*
X0089300Y0051558D01*
X0089300Y0049960D02*
X0089300Y0049960D01*
X0089300Y0048361D02*
X0089300Y0048361D01*
X0091883Y0048361D02*
X0096375Y0048361D01*
X0096751Y0047985D02*
X0098405Y0047300D01*
X0100195Y0047300D01*
X0101849Y0047985D01*
X0103115Y0049251D01*
X0103800Y0050905D01*
X0103800Y0052695D01*
X0103115Y0054349D01*
X0101849Y0055615D01*
X0100195Y0056300D01*
X0098405Y0056300D01*
X0096751Y0055615D01*
X0095485Y0054349D01*
X0094800Y0052695D01*
X0094800Y0050905D01*
X0095485Y0049251D01*
X0096751Y0047985D01*
X0095191Y0049960D02*
X0093188Y0049960D01*
X0093600Y0051558D02*
X0094800Y0051558D01*
X0094991Y0053157D02*
X0093380Y0053157D01*
X0092426Y0054755D02*
X0095891Y0054755D01*
X0102709Y0054755D02*
X0189000Y0054755D01*
X0189000Y0053157D02*
X0103609Y0053157D01*
X0103800Y0051558D02*
X0189000Y0051558D01*
X0189000Y0049960D02*
X0103409Y0049960D01*
X0102225Y0048361D02*
X0189000Y0048361D01*
X0189000Y0046763D02*
X0071149Y0046763D01*
X0071248Y0046957D02*
X0071482Y0047676D01*
X0071600Y0048422D01*
X0071600Y0051600D01*
X0067000Y0051600D01*
X0067000Y0052000D01*
X0071600Y0052000D01*
X0071600Y0055178D01*
X0071482Y0055924D01*
X0071248Y0056643D01*
X0070905Y0057316D01*
X0070461Y0057927D01*
X0069927Y0058461D01*
X0069316Y0058905D01*
X0068643Y0059248D01*
X0067924Y0059482D01*
X0067178Y0059600D01*
X0067000Y0059600D01*
X0067000Y0052000D01*
X0066600Y0052000D01*
X0066600Y0059600D01*
X0066422Y0059600D01*
X0065676Y0059482D01*
X0064957Y0059248D01*
X0064284Y0058905D01*
X0063673Y0058461D01*
X0063139Y0057927D01*
X0062695Y0057316D01*
X0062352Y0056643D01*
X0062118Y0055924D01*
X0062000Y0055178D01*
X0062000Y0052000D01*
X0066600Y0052000D01*
X0066600Y0051600D01*
X0067000Y0051600D01*
X0067000Y0044000D01*
X0067178Y0044000D01*
X0067924Y0044118D01*
X0068643Y0044352D01*
X0069316Y0044695D01*
X0069927Y0045139D01*
X0070461Y0045673D01*
X0070905Y0046284D01*
X0071248Y0046957D01*
X0071590Y0048361D02*
X0086717Y0048361D01*
X0085412Y0049960D02*
X0071600Y0049960D01*
X0071600Y0051558D02*
X0085000Y0051558D01*
X0085220Y0053157D02*
X0071600Y0053157D01*
X0071600Y0054755D02*
X0086174Y0054755D01*
X0089300Y0054755D02*
X0089300Y0054755D01*
X0089300Y0053157D02*
X0089300Y0053157D01*
X0088305Y0061300D02*
X0086468Y0062061D01*
X0085061Y0063468D01*
X0084300Y0065305D01*
X0084300Y0073295D01*
X0083539Y0075132D01*
X0082132Y0076539D01*
X0080295Y0077300D01*
X0078305Y0077300D01*
X0076468Y0076539D01*
X0075061Y0075132D01*
X0074300Y0073295D01*
X0074300Y0065305D01*
X0075061Y0063468D01*
X0076468Y0062061D01*
X0078305Y0061300D01*
X0080295Y0061300D01*
X0082132Y0062061D01*
X0083539Y0063468D01*
X0084300Y0065305D01*
X0084300Y0073295D01*
X0085061Y0075132D01*
X0086468Y0076539D01*
X0088305Y0077300D01*
X0090295Y0077300D01*
X0092132Y0076539D01*
X0093539Y0075132D01*
X0094300Y0073295D01*
X0094300Y0065305D01*
X0093539Y0063468D01*
X0092132Y0062061D01*
X0090295Y0061300D01*
X0088305Y0061300D01*
X0085781Y0062748D02*
X0082819Y0062748D01*
X0083903Y0064346D02*
X0084697Y0064346D01*
X0084300Y0065945D02*
X0084300Y0065945D01*
X0084300Y0067543D02*
X0084300Y0067543D01*
X0084300Y0069142D02*
X0084300Y0069142D01*
X0084300Y0070740D02*
X0084300Y0070740D01*
X0084300Y0072339D02*
X0084300Y0072339D01*
X0084034Y0073937D02*
X0084566Y0073937D01*
X0085465Y0075536D02*
X0083135Y0075536D01*
X0080694Y0077134D02*
X0087906Y0077134D01*
X0090694Y0077134D02*
X0097906Y0077134D01*
X0098305Y0077300D02*
X0096468Y0076539D01*
X0095061Y0075132D01*
X0094300Y0073295D01*
X0094300Y0065305D01*
X0095061Y0063468D01*
X0096468Y0062061D01*
X0098305Y0061300D01*
X0100295Y0061300D01*
X0102132Y0062061D01*
X0103539Y0063468D01*
X0104300Y0065305D01*
X0104300Y0073295D01*
X0103539Y0075132D01*
X0102132Y0076539D01*
X0100295Y0077300D01*
X0098305Y0077300D01*
X0100694Y0077134D02*
X0107906Y0077134D01*
X0108305Y0077300D02*
X0106468Y0076539D01*
X0105061Y0075132D01*
X0104300Y0073295D01*
X0104300Y0065305D01*
X0105061Y0063468D01*
X0106468Y0062061D01*
X0108305Y0061300D01*
X0110295Y0061300D01*
X0112132Y0062061D01*
X0113539Y0063468D01*
X0114300Y0065305D01*
X0114300Y0073295D01*
X0113539Y0075132D01*
X0112132Y0076539D01*
X0110295Y0077300D01*
X0108305Y0077300D01*
X0110694Y0077134D02*
X0366500Y0077134D01*
X0366500Y0075536D02*
X0113135Y0075536D01*
X0114034Y0073937D02*
X0366500Y0073937D01*
X0366500Y0072339D02*
X0193677Y0072339D01*
X0193240Y0072776D02*
X0190360Y0072776D01*
X0188324Y0070740D01*
X0188324Y0067860D01*
X0189000Y0067184D01*
X0189000Y0036416D01*
X0188324Y0035740D01*
X0188324Y0032860D01*
X0190360Y0030824D01*
X0193240Y0030824D01*
X0195276Y0032860D01*
X0195276Y0035740D01*
X0194600Y0036416D01*
X0194600Y0067184D01*
X0195276Y0067860D01*
X0195276Y0070740D01*
X0193240Y0072776D01*
X0195276Y0070740D02*
X0273557Y0070740D01*
X0273784Y0070905D02*
X0273173Y0070461D01*
X0272639Y0069927D01*
X0272195Y0069316D01*
X0271852Y0068643D01*
X0271618Y0067924D01*
X0271500Y0067178D01*
X0271500Y0067000D01*
X0279100Y0067000D01*
X0279100Y0071600D01*
X0275922Y0071600D01*
X0275176Y0071482D01*
X0274457Y0071248D01*
X0273784Y0070905D01*
X0272106Y0069142D02*
X0195276Y0069142D01*
X0194960Y0067543D02*
X0271558Y0067543D01*
X0271500Y0066600D02*
X0271500Y0066422D01*
X0271618Y0065676D01*
X0271852Y0064957D01*
X0272195Y0064284D01*
X0272639Y0063673D01*
X0273173Y0063139D01*
X0273784Y0062695D01*
X0274457Y0062352D01*
X0275176Y0062118D01*
X0275922Y0062000D01*
X0279100Y0062000D01*
X0279100Y0066600D01*
X0279500Y0066600D01*
X0279500Y0067000D01*
X0279100Y0067000D01*
X0279100Y0066600D01*
X0271500Y0066600D01*
X0271576Y0065945D02*
X0194600Y0065945D01*
X0194600Y0064346D02*
X0272163Y0064346D01*
X0273711Y0062748D02*
X0194600Y0062748D01*
X0194600Y0061149D02*
X0273735Y0061149D01*
X0273468Y0061039D02*
X0272061Y0059632D01*
X0271300Y0057795D01*
X0271300Y0055805D01*
X0272061Y0053968D01*
X0273468Y0052561D01*
X0275305Y0051800D01*
X0283295Y0051800D01*
X0285132Y0052561D01*
X0286539Y0053968D01*
X0287300Y0055805D01*
X0287300Y0057795D01*
X0286539Y0059632D01*
X0285132Y0061039D01*
X0283295Y0061800D01*
X0275305Y0061800D01*
X0273468Y0061039D01*
X0272027Y0059551D02*
X0194600Y0059551D01*
X0194600Y0057952D02*
X0271365Y0057952D01*
X0271300Y0056354D02*
X0194600Y0056354D01*
X0194600Y0054755D02*
X0271735Y0054755D01*
X0272872Y0053157D02*
X0194600Y0053157D01*
X0194600Y0051558D02*
X0288028Y0051558D01*
X0288028Y0050238D02*
X0289000Y0049266D01*
X0289000Y0036243D01*
X0289426Y0035214D01*
X0294426Y0030214D01*
X0294640Y0030000D01*
X0286966Y0030000D01*
X0287300Y0030805D01*
X0287300Y0032795D01*
X0286539Y0034632D01*
X0285132Y0036039D01*
X0283295Y0036800D01*
X0275305Y0036800D01*
X0273468Y0036039D01*
X0272061Y0034632D01*
X0271300Y0032795D01*
X0271300Y0030805D01*
X0271634Y0030000D01*
X0251016Y0030000D01*
X0250740Y0030276D01*
X0247860Y0030276D01*
X0247584Y0030000D01*
X0246016Y0030000D01*
X0245740Y0030276D01*
X0242860Y0030276D01*
X0242584Y0030000D01*
X0241016Y0030000D01*
X0240740Y0030276D01*
X0237860Y0030276D01*
X0235824Y0028240D01*
X0235824Y0025360D01*
X0237860Y0023324D01*
X0240740Y0023324D01*
X0241016Y0023600D01*
X0242584Y0023600D01*
X0242860Y0023324D01*
X0245740Y0023324D01*
X0246016Y0023600D01*
X0247584Y0023600D01*
X0247860Y0023324D01*
X0250740Y0023324D01*
X0251016Y0023600D01*
X0271634Y0023600D01*
X0271300Y0022795D01*
X0271300Y0020805D01*
X0272061Y0018968D01*
X0273468Y0017561D01*
X0275305Y0016800D01*
X0283295Y0016800D01*
X0285132Y0017561D01*
X0286539Y0018968D01*
X0287300Y0020805D01*
X0287300Y0022795D01*
X0286966Y0023600D01*
X0314937Y0023600D01*
X0316113Y0024087D01*
X0321113Y0029087D01*
X0322013Y0029987D01*
X0322500Y0031163D01*
X0322500Y0062584D01*
X0322776Y0062860D01*
X0322776Y0063817D01*
X0322960Y0064000D01*
X0354684Y0064000D01*
X0355360Y0063324D01*
X0358240Y0063324D01*
X0360276Y0065360D01*
X0360276Y0068240D01*
X0358240Y0070276D01*
X0355360Y0070276D01*
X0354684Y0069600D01*
X0321243Y0069600D01*
X0320214Y0069174D01*
X0318817Y0067776D01*
X0317860Y0067776D01*
X0315824Y0065740D01*
X0315824Y0062860D01*
X0316100Y0062584D01*
X0316100Y0033125D01*
X0312975Y0030000D01*
X0312834Y0030000D01*
X0313072Y0030238D01*
X0313072Y0033362D01*
X0310862Y0035572D01*
X0307738Y0035572D01*
X0306766Y0034600D01*
X0297960Y0034600D01*
X0294600Y0037960D01*
X0294600Y0049266D01*
X0295572Y0050238D01*
X0295572Y0053362D01*
X0293362Y0055572D01*
X0290238Y0055572D01*
X0288028Y0053362D01*
X0288028Y0050238D01*
X0288306Y0049960D02*
X0194600Y0049960D01*
X0194600Y0048361D02*
X0289000Y0048361D01*
X0289000Y0046763D02*
X0194600Y0046763D01*
X0194600Y0045164D02*
X0272876Y0045164D01*
X0272639Y0044927D02*
X0272195Y0044316D01*
X0271852Y0043643D01*
X0271618Y0042924D01*
X0271500Y0042178D01*
X0271500Y0042000D01*
X0279100Y0042000D01*
X0279100Y0046600D01*
X0275922Y0046600D01*
X0275176Y0046482D01*
X0274457Y0046248D01*
X0273784Y0045905D01*
X0273173Y0045461D01*
X0272639Y0044927D01*
X0271827Y0043566D02*
X0194600Y0043566D01*
X0194600Y0041967D02*
X0279100Y0041967D01*
X0279100Y0042000D02*
X0279100Y0041600D01*
X0279500Y0041600D01*
X0279500Y0042000D01*
X0279100Y0042000D01*
X0279500Y0042000D02*
X0279500Y0046600D01*
X0282678Y0046600D01*
X0283424Y0046482D01*
X0284143Y0046248D01*
X0284816Y0045905D01*
X0285427Y0045461D01*
X0285961Y0044927D01*
X0286405Y0044316D01*
X0286748Y0043643D01*
X0286982Y0042924D01*
X0287100Y0042178D01*
X0287100Y0042000D01*
X0279500Y0042000D01*
X0279500Y0041967D02*
X0289000Y0041967D01*
X0289000Y0040369D02*
X0286882Y0040369D01*
X0286982Y0040676D02*
X0287100Y0041422D01*
X0287100Y0041600D01*
X0279500Y0041600D01*
X0279500Y0037000D01*
X0282678Y0037000D01*
X0283424Y0037118D01*
X0284143Y0037352D01*
X0284816Y0037695D01*
X0285427Y0038139D01*
X0285961Y0038673D01*
X0286405Y0039284D01*
X0286748Y0039957D01*
X0286982Y0040676D01*
X0286032Y0038770D02*
X0289000Y0038770D01*
X0289000Y0037172D02*
X0283589Y0037172D01*
X0285598Y0035573D02*
X0289277Y0035573D01*
X0290666Y0033975D02*
X0286811Y0033975D01*
X0287300Y0032376D02*
X0292264Y0032376D01*
X0293863Y0030778D02*
X0287288Y0030778D01*
X0291800Y0036800D02*
X0296800Y0031800D01*
X0309300Y0031800D01*
X0313072Y0032376D02*
X0315351Y0032376D01*
X0316100Y0033975D02*
X0312459Y0033975D01*
X0316100Y0035573D02*
X0296987Y0035573D01*
X0295388Y0037172D02*
X0316100Y0037172D01*
X0316100Y0038770D02*
X0294600Y0038770D01*
X0294600Y0040369D02*
X0316100Y0040369D01*
X0316100Y0041967D02*
X0294600Y0041967D01*
X0294600Y0043566D02*
X0316100Y0043566D01*
X0316100Y0045164D02*
X0294600Y0045164D01*
X0294600Y0046763D02*
X0316100Y0046763D01*
X0316100Y0048361D02*
X0294600Y0048361D01*
X0295294Y0049960D02*
X0316100Y0049960D01*
X0316100Y0051558D02*
X0295572Y0051558D01*
X0295572Y0053157D02*
X0316100Y0053157D01*
X0316100Y0054755D02*
X0294179Y0054755D01*
X0291800Y0051800D02*
X0291800Y0036800D01*
X0289000Y0043566D02*
X0286773Y0043566D01*
X0285724Y0045164D02*
X0289000Y0045164D01*
X0279500Y0045164D02*
X0279100Y0045164D01*
X0279100Y0043566D02*
X0279500Y0043566D01*
X0279100Y0041600D02*
X0271500Y0041600D01*
X0271500Y0041422D01*
X0271618Y0040676D01*
X0271852Y0039957D01*
X0272195Y0039284D01*
X0272639Y0038673D01*
X0273173Y0038139D01*
X0273784Y0037695D01*
X0274457Y0037352D01*
X0275176Y0037118D01*
X0275922Y0037000D01*
X0279100Y0037000D01*
X0279100Y0041600D01*
X0279100Y0040369D02*
X0279500Y0040369D01*
X0279500Y0038770D02*
X0279100Y0038770D01*
X0279100Y0037172D02*
X0279500Y0037172D01*
X0275011Y0037172D02*
X0194600Y0037172D01*
X0194600Y0038770D02*
X0272568Y0038770D01*
X0271718Y0040369D02*
X0194600Y0040369D01*
X0195276Y0035573D02*
X0273002Y0035573D01*
X0271789Y0033975D02*
X0195276Y0033975D01*
X0194793Y0032376D02*
X0271300Y0032376D01*
X0271311Y0030778D02*
X0028983Y0030778D01*
X0028026Y0031809D02*
X0028026Y0031809D01*
X0031270Y0028313D01*
X0031270Y0028313D01*
X0033339Y0024016D01*
X0034050Y0019300D01*
X0034050Y0019300D01*
X0033339Y0014584D01*
X0033339Y0014584D01*
X0031270Y0010287D01*
X0031270Y0010287D01*
X0029890Y0008800D01*
X0405971Y0008800D01*
X0405971Y0010804D01*
X0379594Y0010804D01*
X0378422Y0011976D01*
X0378422Y0076624D01*
X0379594Y0077796D01*
X0383350Y0077796D01*
X0382571Y0078417D01*
X0382571Y0078417D01*
X0379884Y0082358D01*
X0378479Y0086915D01*
X0378479Y0087629D01*
X0378115Y0086751D01*
X0376849Y0085485D01*
X0375195Y0084800D01*
X0373405Y0084800D01*
X0372100Y0085341D01*
X0372100Y0083916D01*
X0372776Y0083240D01*
X0372776Y0080360D01*
X0372100Y0079684D01*
X0372100Y0063916D01*
X0372776Y0063240D01*
X0372776Y0060360D01*
X0370740Y0058324D01*
X0367860Y0058324D01*
X0365824Y0060360D01*
X0365824Y0063240D01*
X0366500Y0063916D01*
X0366500Y0079684D01*
X0365824Y0080360D01*
X0365824Y0083240D01*
X0366500Y0083916D01*
X0366500Y0087357D01*
X0366926Y0088386D01*
X0370214Y0091674D01*
X0370454Y0091773D01*
X0370485Y0091849D01*
X0371751Y0093115D01*
X0373405Y0093800D01*
X0375195Y0093800D01*
X0376849Y0093115D01*
X0378115Y0091849D01*
X0378479Y0090971D01*
X0378479Y0091685D01*
X0379884Y0096242D01*
X0379884Y0096242D01*
X0382571Y0100183D01*
X0382571Y0100183D01*
X0386300Y0103156D01*
X0386300Y0103156D01*
X0390740Y0104899D01*
X0390740Y0104899D01*
X0395496Y0105255D01*
X0395496Y0105255D01*
X0400145Y0104194D01*
X0400145Y0104194D01*
X0404276Y0101809D01*
X0404276Y0101809D01*
X0405971Y0099982D01*
X0405971Y0188400D01*
X0404632Y0187061D01*
X0402795Y0186300D01*
X0400805Y0186300D01*
X0398968Y0187061D01*
X0397561Y0188468D01*
X0396800Y0190305D01*
X0396800Y0198295D01*
X0397561Y0200132D01*
X0398430Y0201001D01*
X0395170Y0201001D01*
X0396039Y0200132D01*
X0396800Y0198295D01*
X0396800Y0190305D01*
X0396039Y0188468D01*
X0394632Y0187061D01*
X0392795Y0186300D01*
X0390805Y0186300D01*
X0388968Y0187061D01*
X0387561Y0188468D01*
X0386800Y0190305D01*
X0386800Y0198295D01*
X0387561Y0200132D01*
X0388430Y0201001D01*
X0385170Y0201001D01*
X0386039Y0200132D01*
X0386800Y0198295D01*
X0386800Y0190305D01*
X0386039Y0188468D01*
X0384632Y0187061D01*
X0382795Y0186300D01*
X0380805Y0186300D01*
X0378968Y0187061D01*
X0377561Y0188468D01*
X0376800Y0190305D01*
X0376800Y0198295D01*
X0377561Y0200132D01*
X0378430Y0201001D01*
X0375170Y0201001D01*
X0376039Y0200132D01*
X0376800Y0198295D01*
X0376800Y0190305D01*
X0376039Y0188468D01*
X0374632Y0187061D01*
X0372795Y0186300D01*
X0370805Y0186300D01*
X0368968Y0187061D01*
X0367561Y0188468D01*
X0366800Y0190305D01*
X0366800Y0198295D01*
X0367561Y0200132D01*
X0368430Y0201001D01*
X0365170Y0201001D01*
X0366039Y0200132D01*
X0366800Y0198295D01*
X0366800Y0190305D01*
X0366039Y0188468D01*
X0364632Y0187061D01*
X0362795Y0186300D01*
X0360805Y0186300D01*
X0358968Y0187061D01*
X0357561Y0188468D01*
X0356800Y0190305D01*
X0356800Y0198295D01*
X0357561Y0200132D01*
X0358430Y0201001D01*
X0355170Y0201001D01*
X0356039Y0200132D01*
X0356800Y0198295D01*
X0356800Y0190305D01*
X0356039Y0188468D01*
X0354632Y0187061D01*
X0352795Y0186300D01*
X0350805Y0186300D01*
X0348968Y0187061D01*
X0347561Y0188468D01*
X0346800Y0190305D01*
X0346800Y0198295D01*
X0347561Y0200132D01*
X0348430Y0201001D01*
X0345170Y0201001D01*
X0346039Y0200132D01*
X0346800Y0198295D01*
X0346800Y0190305D01*
X0346039Y0188468D01*
X0344632Y0187061D01*
X0342795Y0186300D01*
X0340805Y0186300D01*
X0338968Y0187061D01*
X0337561Y0188468D01*
X0336800Y0190305D01*
X0336800Y0198295D01*
X0337561Y0200132D01*
X0338430Y0201001D01*
X0335170Y0201001D01*
X0336039Y0200132D01*
X0336800Y0198295D01*
X0336800Y0190305D01*
X0336039Y0188468D01*
X0334632Y0187061D01*
X0332795Y0186300D01*
X0330805Y0186300D01*
X0328968Y0187061D01*
X0327561Y0188468D01*
X0326800Y0190305D01*
X0326800Y0198295D01*
X0327561Y0200132D01*
X0328430Y0201001D01*
X0325170Y0201001D01*
X0326039Y0200132D01*
X0326800Y0198295D01*
X0326800Y0190305D01*
X0326039Y0188468D01*
X0324632Y0187061D01*
X0322795Y0186300D01*
X0320805Y0186300D01*
X0318968Y0187061D01*
X0317561Y0188468D01*
X0316800Y0190305D01*
X0316800Y0198295D01*
X0317561Y0200132D01*
X0318430Y0201001D01*
X0315170Y0201001D01*
X0316039Y0200132D01*
X0316800Y0198295D01*
X0316800Y0190305D01*
X0316039Y0188468D01*
X0314632Y0187061D01*
X0312795Y0186300D01*
X0310805Y0186300D01*
X0308968Y0187061D01*
X0307561Y0188468D01*
X0306800Y0190305D01*
X0306800Y0198295D01*
X0307561Y0200132D01*
X0308430Y0201001D01*
X0305170Y0201001D01*
X0306039Y0200132D01*
X0306800Y0198295D01*
X0306800Y0190305D01*
X0306039Y0188468D01*
X0304632Y0187061D01*
X0302795Y0186300D01*
X0300805Y0186300D01*
X0298968Y0187061D01*
X0297561Y0188468D01*
X0296800Y0190305D01*
X0296800Y0198295D01*
X0297561Y0200132D01*
X0298430Y0201001D01*
X0295170Y0201001D01*
X0296039Y0200132D01*
X0296800Y0198295D01*
X0296800Y0190305D01*
X0296039Y0188468D01*
X0294632Y0187061D01*
X0292795Y0186300D01*
X0290805Y0186300D01*
X0288968Y0187061D01*
X0287561Y0188468D01*
X0286800Y0190305D01*
X0286800Y0198295D01*
X0287561Y0200132D01*
X0288430Y0201001D01*
X0285170Y0201001D01*
X0286039Y0200132D01*
X0286800Y0198295D01*
X0286800Y0190305D01*
X0286039Y0188468D01*
X0284632Y0187061D01*
X0282795Y0186300D01*
X0280805Y0186300D01*
X0278968Y0187061D01*
X0277561Y0188468D01*
X0276800Y0190305D01*
X0276800Y0198295D01*
X0277561Y0200132D01*
X0278430Y0201001D01*
X0275170Y0201001D01*
X0276039Y0200132D01*
X0276800Y0198295D01*
X0276800Y0190305D01*
X0276039Y0188468D01*
X0274632Y0187061D01*
X0272795Y0186300D01*
X0270805Y0186300D01*
X0268968Y0187061D01*
X0267561Y0188468D01*
X0266800Y0190305D01*
X0266800Y0198295D01*
X0267561Y0200132D01*
X0268430Y0201001D01*
X0265170Y0201001D01*
X0266039Y0200132D01*
X0266800Y0198295D01*
X0266800Y0190305D01*
X0266039Y0188468D01*
X0264632Y0187061D01*
X0262795Y0186300D01*
X0260805Y0186300D01*
X0258968Y0187061D01*
X0257561Y0188468D01*
X0256800Y0190305D01*
X0256800Y0198295D01*
X0257561Y0200132D01*
X0258430Y0201001D01*
X0255170Y0201001D01*
X0256039Y0200132D01*
X0256800Y0198295D01*
X0256800Y0190305D01*
X0256039Y0188468D01*
X0254632Y0187061D01*
X0252795Y0186300D01*
X0250805Y0186300D01*
X0248968Y0187061D01*
X0247561Y0188468D01*
X0246800Y0190305D01*
X0246800Y0198295D01*
X0247561Y0200132D01*
X0248430Y0201001D01*
X0245170Y0201001D01*
X0246039Y0200132D01*
X0246800Y0198295D01*
X0246800Y0190305D01*
X0246039Y0188468D01*
X0244632Y0187061D01*
X0242795Y0186300D01*
X0240805Y0186300D01*
X0238968Y0187061D01*
X0237561Y0188468D01*
X0236800Y0190305D01*
X0236800Y0198295D01*
X0237561Y0200132D01*
X0238430Y0201001D01*
X0235170Y0201001D01*
X0236039Y0200132D01*
X0236800Y0198295D01*
X0236800Y0190305D01*
X0236039Y0188468D01*
X0234632Y0187061D01*
X0232795Y0186300D01*
X0230805Y0186300D01*
X0228968Y0187061D01*
X0227561Y0188468D01*
X0226800Y0190305D01*
X0226800Y0198295D01*
X0227561Y0200132D01*
X0228430Y0201001D01*
X0225170Y0201001D01*
X0226039Y0200132D01*
X0226800Y0198295D01*
X0226800Y0190305D01*
X0226039Y0188468D01*
X0224632Y0187061D01*
X0222795Y0186300D01*
X0220805Y0186300D01*
X0218968Y0187061D01*
X0217561Y0188468D01*
X0216800Y0190305D01*
X0216800Y0198295D01*
X0217561Y0200132D01*
X0218430Y0201001D01*
X0215170Y0201001D01*
X0216039Y0200132D01*
X0216800Y0198295D01*
X0216800Y0190305D01*
X0216039Y0188468D01*
X0214632Y0187061D01*
X0212795Y0186300D01*
X0210805Y0186300D01*
X0208968Y0187061D01*
X0207561Y0188468D01*
X0206800Y0190305D01*
X0206800Y0198295D01*
X0207561Y0200132D01*
X0208430Y0201001D01*
X0205170Y0201001D01*
X0206039Y0200132D01*
X0206800Y0198295D01*
X0206800Y0190305D01*
X0206039Y0188468D01*
X0204632Y0187061D01*
X0202795Y0186300D01*
X0200805Y0186300D01*
X0198968Y0187061D01*
X0197561Y0188468D01*
X0196800Y0190305D01*
X0196800Y0198295D01*
X0197561Y0200132D01*
X0198430Y0201001D01*
X0195170Y0201001D01*
X0196039Y0200132D01*
X0196800Y0198295D01*
X0196800Y0190305D01*
X0196039Y0188468D01*
X0194632Y0187061D01*
X0192795Y0186300D01*
X0190805Y0186300D01*
X0188968Y0187061D01*
X0187561Y0188468D01*
X0186800Y0190305D01*
X0186800Y0198295D01*
X0187561Y0200132D01*
X0188430Y0201001D01*
X0185170Y0201001D01*
X0186039Y0200132D01*
X0186800Y0198295D01*
X0186800Y0190305D01*
X0186039Y0188468D01*
X0184632Y0187061D01*
X0182795Y0186300D01*
X0180805Y0186300D01*
X0178968Y0187061D01*
X0177561Y0188468D01*
X0176800Y0190305D01*
X0176800Y0198295D01*
X0177561Y0200132D01*
X0178430Y0201001D01*
X0175170Y0201001D01*
X0176039Y0200132D01*
X0176800Y0198295D01*
X0176800Y0190305D01*
X0176039Y0188468D01*
X0174632Y0187061D01*
X0172795Y0186300D01*
X0170805Y0186300D01*
X0168968Y0187061D01*
X0167561Y0188468D01*
X0166800Y0190305D01*
X0166800Y0198295D01*
X0167561Y0200132D01*
X0168430Y0201001D01*
X0165170Y0201001D01*
X0166039Y0200132D01*
X0166800Y0198295D01*
X0166800Y0190305D01*
X0166039Y0188468D01*
X0164632Y0187061D01*
X0162795Y0186300D01*
X0160805Y0186300D01*
X0158968Y0187061D01*
X0157561Y0188468D01*
X0156800Y0190305D01*
X0156800Y0198295D01*
X0157561Y0200132D01*
X0158430Y0201001D01*
X0155170Y0201001D01*
X0156039Y0200132D01*
X0156800Y0198295D01*
X0156800Y0190305D01*
X0156039Y0188468D01*
X0154632Y0187061D01*
X0152795Y0186300D01*
X0150805Y0186300D01*
X0148968Y0187061D01*
X0147561Y0188468D01*
X0146800Y0190305D01*
X0146800Y0198295D01*
X0147561Y0200132D01*
X0148430Y0201001D01*
X0145170Y0201001D01*
X0146039Y0200132D01*
X0146800Y0198295D01*
X0146800Y0190305D01*
X0146039Y0188468D01*
X0144632Y0187061D01*
X0142795Y0186300D01*
X0140805Y0186300D01*
X0138968Y0187061D01*
X0137561Y0188468D01*
X0136800Y0190305D01*
X0136800Y0198295D01*
X0137561Y0200132D01*
X0138430Y0201001D01*
X0135170Y0201001D01*
X0136039Y0200132D01*
X0136800Y0198295D01*
X0136800Y0190305D01*
X0136039Y0188468D01*
X0134632Y0187061D01*
X0132795Y0186300D01*
X0130805Y0186300D01*
X0128968Y0187061D01*
X0127561Y0188468D01*
X0126800Y0190305D01*
X0126800Y0198295D01*
X0127561Y0200132D01*
X0128430Y0201001D01*
X0125170Y0201001D01*
X0126039Y0200132D01*
X0126800Y0198295D01*
X0126800Y0190305D01*
X0126039Y0188468D01*
X0124632Y0187061D01*
X0122795Y0186300D01*
X0120805Y0186300D01*
X0118968Y0187061D01*
X0117561Y0188468D01*
X0116800Y0190305D01*
X0116800Y0198295D01*
X0117561Y0200132D01*
X0118430Y0201001D01*
X0115170Y0201001D01*
X0116039Y0200132D01*
X0116800Y0198295D01*
X0116800Y0190305D01*
X0116039Y0188468D01*
X0114632Y0187061D01*
X0112795Y0186300D01*
X0110805Y0186300D01*
X0108968Y0187061D01*
X0107561Y0188468D01*
X0106800Y0190305D01*
X0106800Y0198295D01*
X0107561Y0200132D01*
X0108430Y0201001D01*
X0105170Y0201001D01*
X0106039Y0200132D01*
X0106800Y0198295D01*
X0106800Y0190305D01*
X0106039Y0188468D01*
X0104632Y0187061D01*
X0102795Y0186300D01*
X0100805Y0186300D01*
X0098968Y0187061D01*
X0097561Y0188468D01*
X0096800Y0190305D01*
X0096800Y0198295D01*
X0097561Y0200132D01*
X0098430Y0201001D01*
X0095170Y0201001D01*
X0096039Y0200132D01*
X0096800Y0198295D01*
X0096800Y0190305D01*
X0096039Y0188468D01*
X0094632Y0187061D01*
X0092795Y0186300D01*
X0090805Y0186300D01*
X0088968Y0187061D01*
X0087561Y0188468D01*
X0086800Y0190305D01*
X0086800Y0198295D01*
X0087561Y0200132D01*
X0088430Y0201001D01*
X0085170Y0201001D01*
X0086039Y0200132D01*
X0086800Y0198295D01*
X0086800Y0190305D01*
X0086039Y0188468D01*
X0084632Y0187061D01*
X0082795Y0186300D01*
X0080805Y0186300D01*
X0078968Y0187061D01*
X0077561Y0188468D01*
X0076800Y0190305D01*
X0076800Y0198295D01*
X0077561Y0200132D01*
X0078430Y0201001D01*
X0075170Y0201001D01*
X0076039Y0200132D01*
X0076800Y0198295D01*
X0076800Y0190305D01*
X0076039Y0188468D01*
X0074632Y0187061D01*
X0072795Y0186300D01*
X0070805Y0186300D01*
X0068968Y0187061D01*
X0067561Y0188468D01*
X0066800Y0190305D01*
X0066800Y0198295D01*
X0067561Y0200132D01*
X0068430Y0201001D01*
X0065170Y0201001D01*
X0066039Y0200132D01*
X0066800Y0198295D01*
X0066800Y0190305D01*
X0066039Y0188468D01*
X0064632Y0187061D01*
X0062795Y0186300D01*
X0060805Y0186300D01*
X0058968Y0187061D01*
X0057561Y0188468D01*
X0056800Y0190305D01*
X0056800Y0198295D01*
X0057561Y0200132D01*
X0058430Y0201001D01*
X0055170Y0201001D01*
X0056039Y0200132D01*
X0056800Y0198295D01*
X0056800Y0190305D01*
X0056039Y0188468D01*
X0054632Y0187061D01*
X0052795Y0186300D01*
X0050805Y0186300D01*
X0048968Y0187061D01*
X0047561Y0188468D01*
X0046800Y0190305D01*
X0046800Y0198295D01*
X0047561Y0200132D01*
X0048430Y0201001D01*
X0045170Y0201001D01*
X0046039Y0200132D01*
X0046800Y0198295D01*
X0046800Y0190305D01*
X0046039Y0188468D01*
X0044632Y0187061D01*
X0042795Y0186300D01*
X0040805Y0186300D01*
X0038968Y0187061D01*
X0037561Y0188468D01*
X0036800Y0190305D01*
X0036800Y0198295D01*
X0037561Y0200132D01*
X0038430Y0201001D01*
X0035170Y0201001D01*
X0036039Y0200132D01*
X0036800Y0198295D01*
X0036800Y0190305D01*
X0036039Y0188468D01*
X0034632Y0187061D01*
X0032795Y0186300D01*
X0030805Y0186300D01*
X0028968Y0187061D01*
X0027561Y0188468D01*
X0026800Y0190305D01*
X0026800Y0198295D01*
X0027561Y0200132D01*
X0028430Y0201001D01*
X0025170Y0201001D01*
X0026039Y0200132D01*
X0026800Y0198295D01*
X0026800Y0190305D01*
X0026039Y0188468D01*
X0024632Y0187061D01*
X0022795Y0186300D01*
X0020805Y0186300D01*
X0018968Y0187061D01*
X0017561Y0188468D01*
X0016800Y0190305D01*
X0016800Y0198295D01*
X0017561Y0200132D01*
X0018430Y0201001D01*
X0015170Y0201001D01*
X0016039Y0200132D01*
X0016800Y0198295D01*
X0016800Y0190305D01*
X0016039Y0188468D01*
X0014632Y0187061D01*
X0012795Y0186300D01*
X0010805Y0186300D01*
X0008968Y0187061D01*
X0007561Y0188468D01*
X0007550Y0188495D01*
X0007550Y0031163D01*
X0010050Y0033156D01*
X0010050Y0033156D01*
X0014490Y0034899D01*
X0014490Y0034899D01*
X0019246Y0035255D01*
X0019246Y0035255D01*
X0023895Y0034194D01*
X0023895Y0034194D01*
X0028026Y0031809D01*
X0027044Y0032376D02*
X0188807Y0032376D01*
X0188324Y0033975D02*
X0024275Y0033975D01*
X0025795Y0036800D02*
X0017805Y0036800D01*
X0015968Y0037561D01*
X0014561Y0038968D01*
X0013800Y0040805D01*
X0013800Y0042795D01*
X0014561Y0044632D01*
X0015968Y0046039D01*
X0017805Y0046800D01*
X0015968Y0047561D01*
X0014561Y0048968D01*
X0013800Y0050805D01*
X0013800Y0052795D01*
X0014561Y0054632D01*
X0015968Y0056039D01*
X0017805Y0056800D01*
X0015968Y0057561D01*
X0014561Y0058968D01*
X0013800Y0060805D01*
X0013800Y0062795D01*
X0014561Y0064632D01*
X0015968Y0066039D01*
X0017805Y0066800D01*
X0025795Y0066800D01*
X0027632Y0066039D01*
X0029039Y0064632D01*
X0029800Y0062795D01*
X0029800Y0060805D01*
X0029039Y0058968D01*
X0027632Y0057561D01*
X0025795Y0056800D01*
X0017805Y0056800D01*
X0025795Y0056800D01*
X0027632Y0056039D01*
X0029039Y0054632D01*
X0029800Y0052795D01*
X0029800Y0050805D01*
X0029039Y0048968D01*
X0027632Y0047561D01*
X0025795Y0046800D01*
X0017805Y0046800D01*
X0025795Y0046800D01*
X0027632Y0046039D01*
X0029039Y0044632D01*
X0029800Y0042795D01*
X0029800Y0040805D01*
X0029039Y0038968D01*
X0027632Y0037561D01*
X0025795Y0036800D01*
X0026692Y0037172D02*
X0189000Y0037172D01*
X0189000Y0038770D02*
X0028841Y0038770D01*
X0029619Y0040369D02*
X0189000Y0040369D01*
X0189000Y0041967D02*
X0029800Y0041967D01*
X0029481Y0043566D02*
X0189000Y0043566D01*
X0189000Y0045164D02*
X0069952Y0045164D01*
X0067000Y0045164D02*
X0066600Y0045164D01*
X0066600Y0044000D02*
X0066600Y0051600D01*
X0062000Y0051600D01*
X0062000Y0048422D01*
X0062118Y0047676D01*
X0062352Y0046957D01*
X0062695Y0046284D01*
X0063139Y0045673D01*
X0063673Y0045139D01*
X0064284Y0044695D01*
X0064957Y0044352D01*
X0065676Y0044118D01*
X0066422Y0044000D01*
X0066600Y0044000D01*
X0066600Y0046763D02*
X0067000Y0046763D01*
X0067000Y0048361D02*
X0066600Y0048361D01*
X0066600Y0049960D02*
X0067000Y0049960D01*
X0067000Y0051558D02*
X0066600Y0051558D01*
X0066600Y0053157D02*
X0067000Y0053157D01*
X0067000Y0054755D02*
X0066600Y0054755D01*
X0066600Y0056354D02*
X0067000Y0056354D01*
X0067000Y0057952D02*
X0066600Y0057952D01*
X0066600Y0059551D02*
X0067000Y0059551D01*
X0067488Y0059551D02*
X0189000Y0059551D01*
X0189000Y0061149D02*
X0029800Y0061149D01*
X0029800Y0062748D02*
X0075781Y0062748D01*
X0074697Y0064346D02*
X0029157Y0064346D01*
X0027726Y0065945D02*
X0074300Y0065945D01*
X0074300Y0067543D02*
X0007550Y0067543D01*
X0007550Y0065945D02*
X0015874Y0065945D01*
X0014443Y0064346D02*
X0007550Y0064346D01*
X0007550Y0062748D02*
X0013800Y0062748D01*
X0013800Y0061149D02*
X0007550Y0061149D01*
X0007550Y0059551D02*
X0014320Y0059551D01*
X0015577Y0057952D02*
X0007550Y0057952D01*
X0007550Y0056354D02*
X0016728Y0056354D01*
X0014684Y0054755D02*
X0007550Y0054755D01*
X0007550Y0053157D02*
X0013950Y0053157D01*
X0013800Y0051558D02*
X0007550Y0051558D01*
X0007550Y0049960D02*
X0014150Y0049960D01*
X0015168Y0048361D02*
X0007550Y0048361D01*
X0007550Y0046763D02*
X0017716Y0046763D01*
X0015093Y0045164D02*
X0007550Y0045164D01*
X0007550Y0043566D02*
X0014119Y0043566D01*
X0013800Y0041967D02*
X0007550Y0041967D01*
X0007550Y0040369D02*
X0013981Y0040369D01*
X0014759Y0038770D02*
X0007550Y0038770D01*
X0007550Y0037172D02*
X0016908Y0037172D01*
X0012135Y0033975D02*
X0007550Y0033975D01*
X0007550Y0035573D02*
X0188324Y0035573D01*
X0191800Y0034300D02*
X0191800Y0069300D01*
X0188324Y0069142D02*
X0114300Y0069142D01*
X0114300Y0070740D02*
X0188324Y0070740D01*
X0189923Y0072339D02*
X0114300Y0072339D01*
X0114300Y0067543D02*
X0188640Y0067543D01*
X0189000Y0065945D02*
X0114300Y0065945D01*
X0113903Y0064346D02*
X0189000Y0064346D01*
X0189000Y0062748D02*
X0112819Y0062748D01*
X0105781Y0062748D02*
X0102819Y0062748D01*
X0103903Y0064346D02*
X0104697Y0064346D01*
X0104300Y0065945D02*
X0104300Y0065945D01*
X0104300Y0067543D02*
X0104300Y0067543D01*
X0104300Y0069142D02*
X0104300Y0069142D01*
X0104300Y0070740D02*
X0104300Y0070740D01*
X0104300Y0072339D02*
X0104300Y0072339D01*
X0104034Y0073937D02*
X0104566Y0073937D01*
X0105465Y0075536D02*
X0103135Y0075536D01*
X0095465Y0075536D02*
X0093135Y0075536D01*
X0094034Y0073937D02*
X0094566Y0073937D01*
X0094300Y0072339D02*
X0094300Y0072339D01*
X0094300Y0070740D02*
X0094300Y0070740D01*
X0094300Y0069142D02*
X0094300Y0069142D01*
X0094300Y0067543D02*
X0094300Y0067543D01*
X0094300Y0065945D02*
X0094300Y0065945D01*
X0093903Y0064346D02*
X0094697Y0064346D01*
X0095781Y0062748D02*
X0092819Y0062748D01*
X0074300Y0069142D02*
X0007550Y0069142D01*
X0007550Y0070740D02*
X0074300Y0070740D01*
X0074300Y0072339D02*
X0007550Y0072339D01*
X0007550Y0073937D02*
X0074566Y0073937D01*
X0075465Y0075536D02*
X0007550Y0075536D01*
X0007550Y0077134D02*
X0077906Y0077134D01*
X0107016Y0089600D02*
X0107776Y0090360D01*
X0107776Y0093240D01*
X0105740Y0095276D01*
X0102860Y0095276D01*
X0102184Y0094600D01*
X0051416Y0094600D01*
X0050740Y0095276D01*
X0047860Y0095276D01*
X0045824Y0093240D01*
X0045824Y0090360D01*
X0046584Y0089600D01*
X0036416Y0089600D01*
X0035740Y0090276D01*
X0032860Y0090276D01*
X0030824Y0088240D01*
X0030824Y0085360D01*
X0032860Y0083324D01*
X0035740Y0083324D01*
X0036416Y0084000D01*
X0036584Y0084000D01*
X0035824Y0083240D01*
X0035824Y0080360D01*
X0037860Y0078324D01*
X0040740Y0078324D01*
X0041416Y0079000D01*
X0117184Y0079000D01*
X0117860Y0078324D01*
X0120740Y0078324D01*
X0121416Y0079000D01*
X0197184Y0079000D01*
X0197860Y0078324D01*
X0200740Y0078324D01*
X0201416Y0079000D01*
X0236766Y0079000D01*
X0237738Y0078028D01*
X0240862Y0078028D01*
X0241834Y0079000D01*
X0277184Y0079000D01*
X0277860Y0078324D01*
X0280740Y0078324D01*
X0281416Y0079000D01*
X0337184Y0079000D01*
X0337860Y0078324D01*
X0340740Y0078324D01*
X0341416Y0079000D01*
X0357184Y0079000D01*
X0357860Y0078324D01*
X0360740Y0078324D01*
X0362776Y0080360D01*
X0362776Y0083240D01*
X0360740Y0085276D01*
X0357860Y0085276D01*
X0357184Y0084600D01*
X0357016Y0084600D01*
X0357776Y0085360D01*
X0357776Y0088240D01*
X0355740Y0090276D01*
X0352860Y0090276D01*
X0352184Y0089600D01*
X0347016Y0089600D01*
X0347776Y0090360D01*
X0347776Y0093240D01*
X0345740Y0095276D01*
X0342860Y0095276D01*
X0342184Y0094600D01*
X0291416Y0094600D01*
X0290740Y0095276D01*
X0287860Y0095276D01*
X0285824Y0093240D01*
X0285824Y0090360D01*
X0286584Y0089600D01*
X0276416Y0089600D01*
X0275740Y0090276D01*
X0272860Y0090276D01*
X0272184Y0089600D01*
X0267016Y0089600D01*
X0267776Y0090360D01*
X0267776Y0093240D01*
X0265740Y0095276D01*
X0262860Y0095276D01*
X0262184Y0094600D01*
X0211416Y0094600D01*
X0210740Y0095276D01*
X0207860Y0095276D01*
X0205824Y0093240D01*
X0205824Y0090360D01*
X0206584Y0089600D01*
X0196416Y0089600D01*
X0195740Y0090276D01*
X0192860Y0090276D01*
X0192184Y0089600D01*
X0187016Y0089600D01*
X0187776Y0090360D01*
X0187776Y0093240D01*
X0185740Y0095276D01*
X0182860Y0095276D01*
X0182184Y0094600D01*
X0131416Y0094600D01*
X0130740Y0095276D01*
X0127860Y0095276D01*
X0125824Y0093240D01*
X0125824Y0090360D01*
X0126584Y0089600D01*
X0116416Y0089600D01*
X0115740Y0090276D01*
X0112860Y0090276D01*
X0112184Y0089600D01*
X0107016Y0089600D01*
X0107339Y0089923D02*
X0112506Y0089923D01*
X0116094Y0089923D02*
X0126261Y0089923D01*
X0125824Y0091521D02*
X0107776Y0091521D01*
X0107776Y0093120D02*
X0125824Y0093120D01*
X0127302Y0094718D02*
X0106298Y0094718D01*
X0104300Y0091800D02*
X0049300Y0091800D01*
X0045824Y0091521D02*
X0007550Y0091521D01*
X0007550Y0089923D02*
X0032506Y0089923D01*
X0030908Y0088324D02*
X0007550Y0088324D01*
X0007550Y0086726D02*
X0030824Y0086726D01*
X0031057Y0085127D02*
X0007550Y0085127D01*
X0007550Y0083529D02*
X0032655Y0083529D01*
X0035945Y0083529D02*
X0036112Y0083529D01*
X0035824Y0081930D02*
X0007550Y0081930D01*
X0007550Y0080332D02*
X0035852Y0080332D01*
X0037451Y0078733D02*
X0007550Y0078733D01*
X0007550Y0093120D02*
X0045824Y0093120D01*
X0047302Y0094718D02*
X0007550Y0094718D01*
X0007550Y0096317D02*
X0158419Y0096317D01*
X0157985Y0096751D02*
X0159251Y0095485D01*
X0160905Y0094800D01*
X0162695Y0094800D01*
X0164349Y0095485D01*
X0165615Y0096751D01*
X0166300Y0098405D01*
X0166300Y0100195D01*
X0165615Y0101849D01*
X0164349Y0103115D01*
X0162695Y0103800D01*
X0160905Y0103800D01*
X0159251Y0103115D01*
X0157985Y0101849D01*
X0157300Y0100195D01*
X0157300Y0098405D01*
X0157985Y0096751D01*
X0157503Y0097915D02*
X0007550Y0097915D01*
X0007550Y0099514D02*
X0157300Y0099514D01*
X0157680Y0101112D02*
X0007550Y0101112D01*
X0007550Y0102711D02*
X0158847Y0102711D01*
X0164753Y0102711D02*
X0236347Y0102711D01*
X0236751Y0103115D02*
X0235485Y0101849D01*
X0234800Y0100195D01*
X0234800Y0098405D01*
X0235485Y0096751D01*
X0236751Y0095485D01*
X0238405Y0094800D01*
X0240195Y0094800D01*
X0241849Y0095485D01*
X0243115Y0096751D01*
X0243800Y0098405D01*
X0243800Y0100195D01*
X0243115Y0101849D01*
X0241849Y0103115D01*
X0240195Y0103800D01*
X0238405Y0103800D01*
X0236751Y0103115D01*
X0235180Y0101112D02*
X0165920Y0101112D01*
X0166300Y0099514D02*
X0234800Y0099514D01*
X0235003Y0097915D02*
X0166097Y0097915D01*
X0165181Y0096317D02*
X0235919Y0096317D01*
X0242681Y0096317D02*
X0315919Y0096317D01*
X0315485Y0096751D02*
X0316751Y0095485D01*
X0318405Y0094800D01*
X0320195Y0094800D01*
X0321849Y0095485D01*
X0323115Y0096751D01*
X0323800Y0098405D01*
X0323800Y0100195D01*
X0323115Y0101849D01*
X0322100Y0102864D01*
X0322100Y0108600D01*
X0322584Y0108600D01*
X0322860Y0108324D01*
X0325740Y0108324D01*
X0326016Y0108600D01*
X0347584Y0108600D01*
X0347860Y0108324D01*
X0350740Y0108324D01*
X0351016Y0108600D01*
X0382584Y0108600D01*
X0382860Y0108324D01*
X0385740Y0108324D01*
X0387776Y0110360D01*
X0387776Y0113240D01*
X0385740Y0115276D01*
X0382860Y0115276D01*
X0382584Y0115000D01*
X0351016Y0115000D01*
X0350740Y0115276D01*
X0347860Y0115276D01*
X0347584Y0115000D01*
X0326016Y0115000D01*
X0325740Y0115276D01*
X0322860Y0115276D01*
X0322584Y0115000D01*
X0321016Y0115000D01*
X0320740Y0115276D01*
X0317860Y0115276D01*
X0317584Y0115000D01*
X0316016Y0115000D01*
X0315740Y0115276D01*
X0312860Y0115276D01*
X0312584Y0115000D01*
X0306016Y0115000D01*
X0305740Y0115276D01*
X0302860Y0115276D01*
X0302584Y0115000D01*
X0271016Y0115000D01*
X0270740Y0115276D01*
X0267860Y0115276D01*
X0267584Y0115000D01*
X0226016Y0115000D01*
X0225740Y0115276D01*
X0222860Y0115276D01*
X0222584Y0115000D01*
X0191016Y0115000D01*
X0190740Y0115276D01*
X0187860Y0115276D01*
X0187584Y0115000D01*
X0146016Y0115000D01*
X0145740Y0115276D01*
X0142860Y0115276D01*
X0142584Y0115000D01*
X0111016Y0115000D01*
X0110740Y0115276D01*
X0107860Y0115276D01*
X0107584Y0115000D01*
X0066016Y0115000D01*
X0065740Y0115276D01*
X0062860Y0115276D01*
X0062584Y0115000D01*
X0031016Y0115000D01*
X0030740Y0115276D01*
X0027860Y0115276D01*
X0025824Y0113240D01*
X0025824Y0110360D01*
X0027860Y0108324D01*
X0030740Y0108324D01*
X0031016Y0108600D01*
X0062584Y0108600D01*
X0062860Y0108324D01*
X0065740Y0108324D01*
X0066016Y0108600D01*
X0107584Y0108600D01*
X0107860Y0108324D01*
X0110740Y0108324D01*
X0111016Y0108600D01*
X0142584Y0108600D01*
X0142860Y0108324D01*
X0145740Y0108324D01*
X0146016Y0108600D01*
X0187584Y0108600D01*
X0187860Y0108324D01*
X0190740Y0108324D01*
X0191016Y0108600D01*
X0222584Y0108600D01*
X0222860Y0108324D01*
X0225740Y0108324D01*
X0226016Y0108600D01*
X0267584Y0108600D01*
X0267860Y0108324D01*
X0270740Y0108324D01*
X0271016Y0108600D01*
X0302584Y0108600D01*
X0302860Y0108324D01*
X0305740Y0108324D01*
X0306016Y0108600D01*
X0312584Y0108600D01*
X0312860Y0108324D01*
X0315740Y0108324D01*
X0316016Y0108600D01*
X0316500Y0108600D01*
X0316500Y0102864D01*
X0315485Y0101849D01*
X0314800Y0100195D01*
X0314800Y0098405D01*
X0315485Y0096751D01*
X0315003Y0097915D02*
X0243597Y0097915D01*
X0243800Y0099514D02*
X0314800Y0099514D01*
X0315180Y0101112D02*
X0243420Y0101112D01*
X0242253Y0102711D02*
X0316347Y0102711D01*
X0316500Y0104309D02*
X0007550Y0104309D01*
X0007550Y0105908D02*
X0316500Y0105908D01*
X0316500Y0107506D02*
X0007550Y0107506D01*
X0007550Y0109105D02*
X0027079Y0109105D01*
X0025824Y0110703D02*
X0007550Y0110703D01*
X0007550Y0112302D02*
X0025824Y0112302D01*
X0026484Y0113900D02*
X0007550Y0113900D01*
X0007550Y0115499D02*
X0405971Y0115499D01*
X0405971Y0117097D02*
X0007550Y0117097D01*
X0007550Y0118696D02*
X0405971Y0118696D01*
X0405971Y0120294D02*
X0007550Y0120294D01*
X0007550Y0121893D02*
X0405971Y0121893D01*
X0405971Y0123491D02*
X0007550Y0123491D01*
X0007550Y0125090D02*
X0405971Y0125090D01*
X0405971Y0126688D02*
X0007550Y0126688D01*
X0007550Y0128287D02*
X0405971Y0128287D01*
X0405971Y0129885D02*
X0007550Y0129885D01*
X0007550Y0131484D02*
X0405971Y0131484D01*
X0405971Y0133082D02*
X0007550Y0133082D01*
X0007550Y0134681D02*
X0405971Y0134681D01*
X0405971Y0136279D02*
X0007550Y0136279D01*
X0007550Y0137878D02*
X0405971Y0137878D01*
X0405971Y0139476D02*
X0007550Y0139476D01*
X0007550Y0141075D02*
X0405971Y0141075D01*
X0405971Y0142673D02*
X0007550Y0142673D01*
X0007550Y0144272D02*
X0405971Y0144272D01*
X0405971Y0145870D02*
X0007550Y0145870D01*
X0007550Y0147469D02*
X0405971Y0147469D01*
X0405971Y0149068D02*
X0007550Y0149068D01*
X0007550Y0150666D02*
X0405971Y0150666D01*
X0405971Y0152265D02*
X0007550Y0152265D01*
X0007550Y0153863D02*
X0405971Y0153863D01*
X0405971Y0155462D02*
X0007550Y0155462D01*
X0007550Y0157060D02*
X0405971Y0157060D01*
X0405971Y0158659D02*
X0007550Y0158659D01*
X0007550Y0160257D02*
X0405971Y0160257D01*
X0405971Y0161856D02*
X0007550Y0161856D01*
X0007550Y0163454D02*
X0405971Y0163454D01*
X0405971Y0165053D02*
X0007550Y0165053D01*
X0007550Y0166651D02*
X0405971Y0166651D01*
X0405971Y0168250D02*
X0007550Y0168250D01*
X0007550Y0169848D02*
X0405971Y0169848D01*
X0405971Y0171447D02*
X0007550Y0171447D01*
X0007550Y0173045D02*
X0405971Y0173045D01*
X0405971Y0174644D02*
X0007550Y0174644D01*
X0007550Y0176242D02*
X0405971Y0176242D01*
X0405971Y0177841D02*
X0007550Y0177841D01*
X0007550Y0179439D02*
X0405971Y0179439D01*
X0405971Y0181038D02*
X0007550Y0181038D01*
X0007550Y0182636D02*
X0405971Y0182636D01*
X0405971Y0184235D02*
X0007550Y0184235D01*
X0007550Y0185833D02*
X0405971Y0185833D01*
X0405971Y0187432D02*
X0405003Y0187432D01*
X0398597Y0187432D02*
X0395003Y0187432D01*
X0396272Y0189030D02*
X0397328Y0189030D01*
X0396800Y0190629D02*
X0396800Y0190629D01*
X0396800Y0192227D02*
X0396800Y0192227D01*
X0396800Y0193826D02*
X0396800Y0193826D01*
X0396800Y0195424D02*
X0396800Y0195424D01*
X0396800Y0197023D02*
X0396800Y0197023D01*
X0396665Y0198621D02*
X0396935Y0198621D01*
X0397649Y0200220D02*
X0395951Y0200220D01*
X0387649Y0200220D02*
X0385951Y0200220D01*
X0386665Y0198621D02*
X0386935Y0198621D01*
X0386800Y0197023D02*
X0386800Y0197023D01*
X0386800Y0195424D02*
X0386800Y0195424D01*
X0386800Y0193826D02*
X0386800Y0193826D01*
X0386800Y0192227D02*
X0386800Y0192227D01*
X0386800Y0190629D02*
X0386800Y0190629D01*
X0386272Y0189030D02*
X0387328Y0189030D01*
X0388597Y0187432D02*
X0385003Y0187432D01*
X0378597Y0187432D02*
X0375003Y0187432D01*
X0376272Y0189030D02*
X0377328Y0189030D01*
X0376800Y0190629D02*
X0376800Y0190629D01*
X0376800Y0192227D02*
X0376800Y0192227D01*
X0376800Y0193826D02*
X0376800Y0193826D01*
X0376800Y0195424D02*
X0376800Y0195424D01*
X0376800Y0197023D02*
X0376800Y0197023D01*
X0376665Y0198621D02*
X0376935Y0198621D01*
X0377649Y0200220D02*
X0375951Y0200220D01*
X0367649Y0200220D02*
X0365951Y0200220D01*
X0366665Y0198621D02*
X0366935Y0198621D01*
X0366800Y0197023D02*
X0366800Y0197023D01*
X0366800Y0195424D02*
X0366800Y0195424D01*
X0366800Y0193826D02*
X0366800Y0193826D01*
X0366800Y0192227D02*
X0366800Y0192227D01*
X0366800Y0190629D02*
X0366800Y0190629D01*
X0366272Y0189030D02*
X0367328Y0189030D01*
X0368597Y0187432D02*
X0365003Y0187432D01*
X0358597Y0187432D02*
X0355003Y0187432D01*
X0356272Y0189030D02*
X0357328Y0189030D01*
X0356800Y0190629D02*
X0356800Y0190629D01*
X0356800Y0192227D02*
X0356800Y0192227D01*
X0356800Y0193826D02*
X0356800Y0193826D01*
X0356800Y0195424D02*
X0356800Y0195424D01*
X0356800Y0197023D02*
X0356800Y0197023D01*
X0356665Y0198621D02*
X0356935Y0198621D01*
X0357649Y0200220D02*
X0355951Y0200220D01*
X0347649Y0200220D02*
X0345951Y0200220D01*
X0346665Y0198621D02*
X0346935Y0198621D01*
X0346800Y0197023D02*
X0346800Y0197023D01*
X0346800Y0195424D02*
X0346800Y0195424D01*
X0346800Y0193826D02*
X0346800Y0193826D01*
X0346800Y0192227D02*
X0346800Y0192227D01*
X0346800Y0190629D02*
X0346800Y0190629D01*
X0346272Y0189030D02*
X0347328Y0189030D01*
X0348597Y0187432D02*
X0345003Y0187432D01*
X0338597Y0187432D02*
X0335003Y0187432D01*
X0336272Y0189030D02*
X0337328Y0189030D01*
X0336800Y0190629D02*
X0336800Y0190629D01*
X0336800Y0192227D02*
X0336800Y0192227D01*
X0336800Y0193826D02*
X0336800Y0193826D01*
X0336800Y0195424D02*
X0336800Y0195424D01*
X0336800Y0197023D02*
X0336800Y0197023D01*
X0336665Y0198621D02*
X0336935Y0198621D01*
X0337649Y0200220D02*
X0335951Y0200220D01*
X0327649Y0200220D02*
X0325951Y0200220D01*
X0326665Y0198621D02*
X0326935Y0198621D01*
X0326800Y0197023D02*
X0326800Y0197023D01*
X0326800Y0195424D02*
X0326800Y0195424D01*
X0326800Y0193826D02*
X0326800Y0193826D01*
X0326800Y0192227D02*
X0326800Y0192227D01*
X0326800Y0190629D02*
X0326800Y0190629D01*
X0326272Y0189030D02*
X0327328Y0189030D01*
X0328597Y0187432D02*
X0325003Y0187432D01*
X0318597Y0187432D02*
X0315003Y0187432D01*
X0316272Y0189030D02*
X0317328Y0189030D01*
X0316800Y0190629D02*
X0316800Y0190629D01*
X0316800Y0192227D02*
X0316800Y0192227D01*
X0316800Y0193826D02*
X0316800Y0193826D01*
X0316800Y0195424D02*
X0316800Y0195424D01*
X0316800Y0197023D02*
X0316800Y0197023D01*
X0316665Y0198621D02*
X0316935Y0198621D01*
X0317649Y0200220D02*
X0315951Y0200220D01*
X0307649Y0200220D02*
X0305951Y0200220D01*
X0306665Y0198621D02*
X0306935Y0198621D01*
X0306800Y0197023D02*
X0306800Y0197023D01*
X0306800Y0195424D02*
X0306800Y0195424D01*
X0306800Y0193826D02*
X0306800Y0193826D01*
X0306800Y0192227D02*
X0306800Y0192227D01*
X0306800Y0190629D02*
X0306800Y0190629D01*
X0306272Y0189030D02*
X0307328Y0189030D01*
X0308597Y0187432D02*
X0305003Y0187432D01*
X0298597Y0187432D02*
X0295003Y0187432D01*
X0296272Y0189030D02*
X0297328Y0189030D01*
X0296800Y0190629D02*
X0296800Y0190629D01*
X0296800Y0192227D02*
X0296800Y0192227D01*
X0296800Y0193826D02*
X0296800Y0193826D01*
X0296800Y0195424D02*
X0296800Y0195424D01*
X0296800Y0197023D02*
X0296800Y0197023D01*
X0296665Y0198621D02*
X0296935Y0198621D01*
X0297649Y0200220D02*
X0295951Y0200220D01*
X0287649Y0200220D02*
X0285951Y0200220D01*
X0286665Y0198621D02*
X0286935Y0198621D01*
X0286800Y0197023D02*
X0286800Y0197023D01*
X0286800Y0195424D02*
X0286800Y0195424D01*
X0286800Y0193826D02*
X0286800Y0193826D01*
X0286800Y0192227D02*
X0286800Y0192227D01*
X0286800Y0190629D02*
X0286800Y0190629D01*
X0286272Y0189030D02*
X0287328Y0189030D01*
X0288597Y0187432D02*
X0285003Y0187432D01*
X0278597Y0187432D02*
X0275003Y0187432D01*
X0276272Y0189030D02*
X0277328Y0189030D01*
X0276800Y0190629D02*
X0276800Y0190629D01*
X0276800Y0192227D02*
X0276800Y0192227D01*
X0276800Y0193826D02*
X0276800Y0193826D01*
X0276800Y0195424D02*
X0276800Y0195424D01*
X0276800Y0197023D02*
X0276800Y0197023D01*
X0276665Y0198621D02*
X0276935Y0198621D01*
X0277649Y0200220D02*
X0275951Y0200220D01*
X0267649Y0200220D02*
X0265951Y0200220D01*
X0266665Y0198621D02*
X0266935Y0198621D01*
X0266800Y0197023D02*
X0266800Y0197023D01*
X0266800Y0195424D02*
X0266800Y0195424D01*
X0266800Y0193826D02*
X0266800Y0193826D01*
X0266800Y0192227D02*
X0266800Y0192227D01*
X0266800Y0190629D02*
X0266800Y0190629D01*
X0266272Y0189030D02*
X0267328Y0189030D01*
X0268597Y0187432D02*
X0265003Y0187432D01*
X0258597Y0187432D02*
X0255003Y0187432D01*
X0256272Y0189030D02*
X0257328Y0189030D01*
X0256800Y0190629D02*
X0256800Y0190629D01*
X0256800Y0192227D02*
X0256800Y0192227D01*
X0256800Y0193826D02*
X0256800Y0193826D01*
X0256800Y0195424D02*
X0256800Y0195424D01*
X0256800Y0197023D02*
X0256800Y0197023D01*
X0256665Y0198621D02*
X0256935Y0198621D01*
X0257649Y0200220D02*
X0255951Y0200220D01*
X0247649Y0200220D02*
X0245951Y0200220D01*
X0246665Y0198621D02*
X0246935Y0198621D01*
X0246800Y0197023D02*
X0246800Y0197023D01*
X0246800Y0195424D02*
X0246800Y0195424D01*
X0246800Y0193826D02*
X0246800Y0193826D01*
X0246800Y0192227D02*
X0246800Y0192227D01*
X0246800Y0190629D02*
X0246800Y0190629D01*
X0246272Y0189030D02*
X0247328Y0189030D01*
X0248597Y0187432D02*
X0245003Y0187432D01*
X0238597Y0187432D02*
X0235003Y0187432D01*
X0236272Y0189030D02*
X0237328Y0189030D01*
X0236800Y0190629D02*
X0236800Y0190629D01*
X0236800Y0192227D02*
X0236800Y0192227D01*
X0236800Y0193826D02*
X0236800Y0193826D01*
X0236800Y0195424D02*
X0236800Y0195424D01*
X0236800Y0197023D02*
X0236800Y0197023D01*
X0236665Y0198621D02*
X0236935Y0198621D01*
X0237649Y0200220D02*
X0235951Y0200220D01*
X0227649Y0200220D02*
X0225951Y0200220D01*
X0226665Y0198621D02*
X0226935Y0198621D01*
X0226800Y0197023D02*
X0226800Y0197023D01*
X0226800Y0195424D02*
X0226800Y0195424D01*
X0226800Y0193826D02*
X0226800Y0193826D01*
X0226800Y0192227D02*
X0226800Y0192227D01*
X0226800Y0190629D02*
X0226800Y0190629D01*
X0226272Y0189030D02*
X0227328Y0189030D01*
X0228597Y0187432D02*
X0225003Y0187432D01*
X0218597Y0187432D02*
X0215003Y0187432D01*
X0216272Y0189030D02*
X0217328Y0189030D01*
X0216800Y0190629D02*
X0216800Y0190629D01*
X0216800Y0192227D02*
X0216800Y0192227D01*
X0216800Y0193826D02*
X0216800Y0193826D01*
X0216800Y0195424D02*
X0216800Y0195424D01*
X0216800Y0197023D02*
X0216800Y0197023D01*
X0216665Y0198621D02*
X0216935Y0198621D01*
X0217649Y0200220D02*
X0215951Y0200220D01*
X0207649Y0200220D02*
X0205951Y0200220D01*
X0206665Y0198621D02*
X0206935Y0198621D01*
X0206800Y0197023D02*
X0206800Y0197023D01*
X0206800Y0195424D02*
X0206800Y0195424D01*
X0206800Y0193826D02*
X0206800Y0193826D01*
X0206800Y0192227D02*
X0206800Y0192227D01*
X0206800Y0190629D02*
X0206800Y0190629D01*
X0206272Y0189030D02*
X0207328Y0189030D01*
X0208597Y0187432D02*
X0205003Y0187432D01*
X0198597Y0187432D02*
X0195003Y0187432D01*
X0196272Y0189030D02*
X0197328Y0189030D01*
X0196800Y0190629D02*
X0196800Y0190629D01*
X0196800Y0192227D02*
X0196800Y0192227D01*
X0196800Y0193826D02*
X0196800Y0193826D01*
X0196800Y0195424D02*
X0196800Y0195424D01*
X0196800Y0197023D02*
X0196800Y0197023D01*
X0196665Y0198621D02*
X0196935Y0198621D01*
X0197649Y0200220D02*
X0195951Y0200220D01*
X0187649Y0200220D02*
X0185951Y0200220D01*
X0186665Y0198621D02*
X0186935Y0198621D01*
X0186800Y0197023D02*
X0186800Y0197023D01*
X0186800Y0195424D02*
X0186800Y0195424D01*
X0186800Y0193826D02*
X0186800Y0193826D01*
X0186800Y0192227D02*
X0186800Y0192227D01*
X0186800Y0190629D02*
X0186800Y0190629D01*
X0186272Y0189030D02*
X0187328Y0189030D01*
X0188597Y0187432D02*
X0185003Y0187432D01*
X0178597Y0187432D02*
X0175003Y0187432D01*
X0176272Y0189030D02*
X0177328Y0189030D01*
X0176800Y0190629D02*
X0176800Y0190629D01*
X0176800Y0192227D02*
X0176800Y0192227D01*
X0176800Y0193826D02*
X0176800Y0193826D01*
X0176800Y0195424D02*
X0176800Y0195424D01*
X0176800Y0197023D02*
X0176800Y0197023D01*
X0176665Y0198621D02*
X0176935Y0198621D01*
X0177649Y0200220D02*
X0175951Y0200220D01*
X0167649Y0200220D02*
X0165951Y0200220D01*
X0166665Y0198621D02*
X0166935Y0198621D01*
X0166800Y0197023D02*
X0166800Y0197023D01*
X0166800Y0195424D02*
X0166800Y0195424D01*
X0166800Y0193826D02*
X0166800Y0193826D01*
X0166800Y0192227D02*
X0166800Y0192227D01*
X0166800Y0190629D02*
X0166800Y0190629D01*
X0166272Y0189030D02*
X0167328Y0189030D01*
X0168597Y0187432D02*
X0165003Y0187432D01*
X0158597Y0187432D02*
X0155003Y0187432D01*
X0156272Y0189030D02*
X0157328Y0189030D01*
X0156800Y0190629D02*
X0156800Y0190629D01*
X0156800Y0192227D02*
X0156800Y0192227D01*
X0156800Y0193826D02*
X0156800Y0193826D01*
X0156800Y0195424D02*
X0156800Y0195424D01*
X0156800Y0197023D02*
X0156800Y0197023D01*
X0156665Y0198621D02*
X0156935Y0198621D01*
X0157649Y0200220D02*
X0155951Y0200220D01*
X0147649Y0200220D02*
X0145951Y0200220D01*
X0146665Y0198621D02*
X0146935Y0198621D01*
X0146800Y0197023D02*
X0146800Y0197023D01*
X0146800Y0195424D02*
X0146800Y0195424D01*
X0146800Y0193826D02*
X0146800Y0193826D01*
X0146800Y0192227D02*
X0146800Y0192227D01*
X0146800Y0190629D02*
X0146800Y0190629D01*
X0146272Y0189030D02*
X0147328Y0189030D01*
X0148597Y0187432D02*
X0145003Y0187432D01*
X0138597Y0187432D02*
X0135003Y0187432D01*
X0136272Y0189030D02*
X0137328Y0189030D01*
X0136800Y0190629D02*
X0136800Y0190629D01*
X0136800Y0192227D02*
X0136800Y0192227D01*
X0136800Y0193826D02*
X0136800Y0193826D01*
X0136800Y0195424D02*
X0136800Y0195424D01*
X0136800Y0197023D02*
X0136800Y0197023D01*
X0136665Y0198621D02*
X0136935Y0198621D01*
X0137649Y0200220D02*
X0135951Y0200220D01*
X0127649Y0200220D02*
X0125951Y0200220D01*
X0126665Y0198621D02*
X0126935Y0198621D01*
X0126800Y0197023D02*
X0126800Y0197023D01*
X0126800Y0195424D02*
X0126800Y0195424D01*
X0126800Y0193826D02*
X0126800Y0193826D01*
X0126800Y0192227D02*
X0126800Y0192227D01*
X0126800Y0190629D02*
X0126800Y0190629D01*
X0126272Y0189030D02*
X0127328Y0189030D01*
X0128597Y0187432D02*
X0125003Y0187432D01*
X0118597Y0187432D02*
X0115003Y0187432D01*
X0116272Y0189030D02*
X0117328Y0189030D01*
X0116800Y0190629D02*
X0116800Y0190629D01*
X0116800Y0192227D02*
X0116800Y0192227D01*
X0116800Y0193826D02*
X0116800Y0193826D01*
X0116800Y0195424D02*
X0116800Y0195424D01*
X0116800Y0197023D02*
X0116800Y0197023D01*
X0116665Y0198621D02*
X0116935Y0198621D01*
X0117649Y0200220D02*
X0115951Y0200220D01*
X0107649Y0200220D02*
X0105951Y0200220D01*
X0106665Y0198621D02*
X0106935Y0198621D01*
X0106800Y0197023D02*
X0106800Y0197023D01*
X0106800Y0195424D02*
X0106800Y0195424D01*
X0106800Y0193826D02*
X0106800Y0193826D01*
X0106800Y0192227D02*
X0106800Y0192227D01*
X0106800Y0190629D02*
X0106800Y0190629D01*
X0106272Y0189030D02*
X0107328Y0189030D01*
X0108597Y0187432D02*
X0105003Y0187432D01*
X0098597Y0187432D02*
X0095003Y0187432D01*
X0096272Y0189030D02*
X0097328Y0189030D01*
X0096800Y0190629D02*
X0096800Y0190629D01*
X0096800Y0192227D02*
X0096800Y0192227D01*
X0096800Y0193826D02*
X0096800Y0193826D01*
X0096800Y0195424D02*
X0096800Y0195424D01*
X0096800Y0197023D02*
X0096800Y0197023D01*
X0096665Y0198621D02*
X0096935Y0198621D01*
X0097649Y0200220D02*
X0095951Y0200220D01*
X0087649Y0200220D02*
X0085951Y0200220D01*
X0086665Y0198621D02*
X0086935Y0198621D01*
X0086800Y0197023D02*
X0086800Y0197023D01*
X0086800Y0195424D02*
X0086800Y0195424D01*
X0086800Y0193826D02*
X0086800Y0193826D01*
X0086800Y0192227D02*
X0086800Y0192227D01*
X0086800Y0190629D02*
X0086800Y0190629D01*
X0086272Y0189030D02*
X0087328Y0189030D01*
X0088597Y0187432D02*
X0085003Y0187432D01*
X0078597Y0187432D02*
X0075003Y0187432D01*
X0076272Y0189030D02*
X0077328Y0189030D01*
X0076800Y0190629D02*
X0076800Y0190629D01*
X0076800Y0192227D02*
X0076800Y0192227D01*
X0076800Y0193826D02*
X0076800Y0193826D01*
X0076800Y0195424D02*
X0076800Y0195424D01*
X0076800Y0197023D02*
X0076800Y0197023D01*
X0076665Y0198621D02*
X0076935Y0198621D01*
X0077649Y0200220D02*
X0075951Y0200220D01*
X0067649Y0200220D02*
X0065951Y0200220D01*
X0066665Y0198621D02*
X0066935Y0198621D01*
X0066800Y0197023D02*
X0066800Y0197023D01*
X0066800Y0195424D02*
X0066800Y0195424D01*
X0066800Y0193826D02*
X0066800Y0193826D01*
X0066800Y0192227D02*
X0066800Y0192227D01*
X0066800Y0190629D02*
X0066800Y0190629D01*
X0066272Y0189030D02*
X0067328Y0189030D01*
X0068597Y0187432D02*
X0065003Y0187432D01*
X0058597Y0187432D02*
X0055003Y0187432D01*
X0056272Y0189030D02*
X0057328Y0189030D01*
X0056800Y0190629D02*
X0056800Y0190629D01*
X0056800Y0192227D02*
X0056800Y0192227D01*
X0056800Y0193826D02*
X0056800Y0193826D01*
X0056800Y0195424D02*
X0056800Y0195424D01*
X0056800Y0197023D02*
X0056800Y0197023D01*
X0056665Y0198621D02*
X0056935Y0198621D01*
X0057649Y0200220D02*
X0055951Y0200220D01*
X0047649Y0200220D02*
X0045951Y0200220D01*
X0046665Y0198621D02*
X0046935Y0198621D01*
X0046800Y0197023D02*
X0046800Y0197023D01*
X0046800Y0195424D02*
X0046800Y0195424D01*
X0046800Y0193826D02*
X0046800Y0193826D01*
X0046800Y0192227D02*
X0046800Y0192227D01*
X0046800Y0190629D02*
X0046800Y0190629D01*
X0046272Y0189030D02*
X0047328Y0189030D01*
X0048597Y0187432D02*
X0045003Y0187432D01*
X0038597Y0187432D02*
X0035003Y0187432D01*
X0036272Y0189030D02*
X0037328Y0189030D01*
X0036800Y0190629D02*
X0036800Y0190629D01*
X0036800Y0192227D02*
X0036800Y0192227D01*
X0036800Y0193826D02*
X0036800Y0193826D01*
X0036800Y0195424D02*
X0036800Y0195424D01*
X0036800Y0197023D02*
X0036800Y0197023D01*
X0036665Y0198621D02*
X0036935Y0198621D01*
X0037649Y0200220D02*
X0035951Y0200220D01*
X0027649Y0200220D02*
X0025951Y0200220D01*
X0026665Y0198621D02*
X0026935Y0198621D01*
X0026800Y0197023D02*
X0026800Y0197023D01*
X0026800Y0195424D02*
X0026800Y0195424D01*
X0026800Y0193826D02*
X0026800Y0193826D01*
X0026800Y0192227D02*
X0026800Y0192227D01*
X0026800Y0190629D02*
X0026800Y0190629D01*
X0026272Y0189030D02*
X0027328Y0189030D01*
X0028597Y0187432D02*
X0025003Y0187432D01*
X0018597Y0187432D02*
X0015003Y0187432D01*
X0016272Y0189030D02*
X0017328Y0189030D01*
X0016800Y0190629D02*
X0016800Y0190629D01*
X0016800Y0192227D02*
X0016800Y0192227D01*
X0016800Y0193826D02*
X0016800Y0193826D01*
X0016800Y0195424D02*
X0016800Y0195424D01*
X0016800Y0197023D02*
X0016800Y0197023D01*
X0016665Y0198621D02*
X0016935Y0198621D01*
X0017649Y0200220D02*
X0015951Y0200220D01*
X0008597Y0187432D02*
X0007550Y0187432D01*
X0051298Y0094718D02*
X0102302Y0094718D01*
X0114300Y0086800D02*
X0161800Y0086800D01*
X0191800Y0086800D01*
X0194300Y0086800D01*
X0274300Y0086800D01*
X0354300Y0086800D01*
X0357776Y0086726D02*
X0366500Y0086726D01*
X0366500Y0085127D02*
X0360889Y0085127D01*
X0362488Y0083529D02*
X0366112Y0083529D01*
X0365824Y0081930D02*
X0362776Y0081930D01*
X0362748Y0080332D02*
X0365852Y0080332D01*
X0366500Y0078733D02*
X0361149Y0078733D01*
X0357451Y0078733D02*
X0341149Y0078733D01*
X0337451Y0078733D02*
X0281149Y0078733D01*
X0277451Y0078733D02*
X0241567Y0078733D01*
X0237033Y0078733D02*
X0201149Y0078733D01*
X0197451Y0078733D02*
X0121149Y0078733D01*
X0117451Y0078733D02*
X0041149Y0078733D01*
X0039300Y0081800D02*
X0119300Y0081800D01*
X0199300Y0081800D01*
X0239300Y0081800D01*
X0279300Y0081800D01*
X0339300Y0081800D01*
X0359300Y0081800D01*
X0357711Y0085127D02*
X0357543Y0085127D01*
X0357692Y0088324D02*
X0366901Y0088324D01*
X0368463Y0089923D02*
X0356094Y0089923D01*
X0352506Y0089923D02*
X0347339Y0089923D01*
X0347776Y0091521D02*
X0370061Y0091521D01*
X0371762Y0093120D02*
X0347776Y0093120D01*
X0346298Y0094718D02*
X0379414Y0094718D01*
X0378921Y0093120D02*
X0376838Y0093120D01*
X0378251Y0091521D02*
X0378479Y0091521D01*
X0374300Y0089300D02*
X0371800Y0089300D01*
X0369300Y0086800D01*
X0369300Y0081800D01*
X0369300Y0061800D01*
X0371967Y0059551D02*
X0378422Y0059551D01*
X0378422Y0061149D02*
X0372776Y0061149D01*
X0372776Y0062748D02*
X0378422Y0062748D01*
X0378422Y0064346D02*
X0372100Y0064346D01*
X0372100Y0065945D02*
X0378422Y0065945D01*
X0378422Y0067543D02*
X0372100Y0067543D01*
X0372100Y0069142D02*
X0378422Y0069142D01*
X0378422Y0070740D02*
X0372100Y0070740D01*
X0372100Y0072339D02*
X0378422Y0072339D01*
X0378422Y0073937D02*
X0372100Y0073937D01*
X0372100Y0075536D02*
X0378422Y0075536D01*
X0378932Y0077134D02*
X0372100Y0077134D01*
X0372100Y0078733D02*
X0382356Y0078733D01*
X0381266Y0080332D02*
X0372748Y0080332D01*
X0372776Y0081930D02*
X0380176Y0081930D01*
X0379523Y0083529D02*
X0372488Y0083529D01*
X0372615Y0085127D02*
X0372100Y0085127D01*
X0375985Y0085127D02*
X0379030Y0085127D01*
X0378537Y0086726D02*
X0378090Y0086726D01*
X0379935Y0096317D02*
X0322681Y0096317D01*
X0323597Y0097915D02*
X0381025Y0097915D01*
X0382115Y0099514D02*
X0323800Y0099514D01*
X0323420Y0101112D02*
X0383737Y0101112D01*
X0385741Y0102711D02*
X0322253Y0102711D01*
X0322100Y0104309D02*
X0389237Y0104309D01*
X0386521Y0109105D02*
X0405971Y0109105D01*
X0405971Y0110703D02*
X0387776Y0110703D01*
X0387776Y0112302D02*
X0405971Y0112302D01*
X0405971Y0113900D02*
X0387116Y0113900D01*
X0399641Y0104309D02*
X0405971Y0104309D01*
X0405971Y0102711D02*
X0402715Y0102711D01*
X0404923Y0101112D02*
X0405971Y0101112D01*
X0405971Y0105908D02*
X0322100Y0105908D01*
X0322100Y0107506D02*
X0405971Y0107506D01*
X0344300Y0091800D02*
X0289300Y0091800D01*
X0285824Y0091521D02*
X0267776Y0091521D01*
X0267776Y0093120D02*
X0285824Y0093120D01*
X0287302Y0094718D02*
X0266298Y0094718D01*
X0264300Y0091800D02*
X0209300Y0091800D01*
X0205824Y0091521D02*
X0187776Y0091521D01*
X0187776Y0093120D02*
X0205824Y0093120D01*
X0207302Y0094718D02*
X0186298Y0094718D01*
X0184300Y0091800D02*
X0129300Y0091800D01*
X0131298Y0094718D02*
X0182302Y0094718D01*
X0187339Y0089923D02*
X0192506Y0089923D01*
X0196094Y0089923D02*
X0206261Y0089923D01*
X0211298Y0094718D02*
X0262302Y0094718D01*
X0267339Y0089923D02*
X0272506Y0089923D01*
X0276094Y0089923D02*
X0286261Y0089923D01*
X0291298Y0094718D02*
X0342302Y0094718D01*
X0319300Y0099300D02*
X0319300Y0111800D01*
X0284816Y0070905D02*
X0284143Y0071248D01*
X0283424Y0071482D01*
X0282678Y0071600D01*
X0279500Y0071600D01*
X0279500Y0067000D01*
X0287100Y0067000D01*
X0287100Y0067178D01*
X0286982Y0067924D01*
X0286748Y0068643D01*
X0286405Y0069316D01*
X0285961Y0069927D01*
X0285427Y0070461D01*
X0284816Y0070905D01*
X0285043Y0070740D02*
X0366500Y0070740D01*
X0366500Y0069142D02*
X0359374Y0069142D01*
X0360276Y0067543D02*
X0366500Y0067543D01*
X0366500Y0065945D02*
X0360276Y0065945D01*
X0359263Y0064346D02*
X0366500Y0064346D01*
X0365824Y0062748D02*
X0322664Y0062748D01*
X0322500Y0061149D02*
X0365824Y0061149D01*
X0366633Y0059551D02*
X0322500Y0059551D01*
X0322500Y0057952D02*
X0378422Y0057952D01*
X0378422Y0056354D02*
X0322500Y0056354D01*
X0322500Y0054755D02*
X0378422Y0054755D01*
X0378422Y0053157D02*
X0322500Y0053157D01*
X0322500Y0051558D02*
X0378422Y0051558D01*
X0378422Y0049960D02*
X0322500Y0049960D01*
X0322500Y0048361D02*
X0378422Y0048361D01*
X0378422Y0046763D02*
X0322500Y0046763D01*
X0322500Y0045164D02*
X0378422Y0045164D01*
X0378422Y0043566D02*
X0322500Y0043566D01*
X0322500Y0041967D02*
X0378422Y0041967D01*
X0378422Y0040369D02*
X0322500Y0040369D01*
X0322500Y0038770D02*
X0378422Y0038770D01*
X0378422Y0037172D02*
X0322500Y0037172D01*
X0322500Y0035573D02*
X0378422Y0035573D01*
X0378422Y0033975D02*
X0322500Y0033975D01*
X0322500Y0032376D02*
X0378422Y0032376D01*
X0378422Y0030778D02*
X0322340Y0030778D01*
X0321205Y0029179D02*
X0329263Y0029179D01*
X0328324Y0028240D02*
X0328324Y0025360D01*
X0330360Y0023324D01*
X0333240Y0023324D01*
X0333916Y0024000D01*
X0334084Y0024000D01*
X0333324Y0023240D01*
X0333324Y0020360D01*
X0335360Y0018324D01*
X0338240Y0018324D01*
X0338916Y0019000D01*
X0369684Y0019000D01*
X0370360Y0018324D01*
X0373240Y0018324D01*
X0375276Y0020360D01*
X0375276Y0023240D01*
X0373240Y0025276D01*
X0370360Y0025276D01*
X0369684Y0024600D01*
X0362016Y0024600D01*
X0362776Y0025360D01*
X0362776Y0028240D01*
X0360740Y0030276D01*
X0357860Y0030276D01*
X0357184Y0029600D01*
X0333916Y0029600D01*
X0333240Y0030276D01*
X0330360Y0030276D01*
X0328324Y0028240D01*
X0328324Y0027581D02*
X0319606Y0027581D01*
X0318008Y0025982D02*
X0328324Y0025982D01*
X0329300Y0024384D02*
X0316409Y0024384D01*
X0313752Y0030778D02*
X0313072Y0030778D01*
X0331800Y0026800D02*
X0359300Y0026800D01*
X0361837Y0029179D02*
X0378422Y0029179D01*
X0378422Y0027581D02*
X0362776Y0027581D01*
X0362776Y0025982D02*
X0378422Y0025982D01*
X0378422Y0024384D02*
X0374133Y0024384D01*
X0375276Y0022785D02*
X0378422Y0022785D01*
X0378422Y0021187D02*
X0375276Y0021187D01*
X0374504Y0019588D02*
X0378422Y0019588D01*
X0378422Y0017990D02*
X0285561Y0017990D01*
X0286796Y0019588D02*
X0334096Y0019588D01*
X0333324Y0021187D02*
X0287300Y0021187D01*
X0287300Y0022785D02*
X0333324Y0022785D01*
X0336800Y0021800D02*
X0371800Y0021800D01*
X0378422Y0016391D02*
X0033612Y0016391D01*
X0033371Y0014793D02*
X0378422Y0014793D01*
X0378422Y0013194D02*
X0032670Y0013194D01*
X0031900Y0011596D02*
X0378802Y0011596D01*
X0405971Y0009997D02*
X0031001Y0009997D01*
X0033852Y0017990D02*
X0273039Y0017990D01*
X0271804Y0019588D02*
X0034007Y0019588D01*
X0033766Y0021187D02*
X0271300Y0021187D01*
X0271300Y0022785D02*
X0033525Y0022785D01*
X0033162Y0024384D02*
X0236800Y0024384D01*
X0235824Y0025982D02*
X0032392Y0025982D01*
X0031623Y0027581D02*
X0235824Y0027581D01*
X0236763Y0029179D02*
X0030466Y0029179D01*
X0009072Y0032376D02*
X0007550Y0032376D01*
X0028507Y0045164D02*
X0043365Y0045164D01*
X0043968Y0044561D02*
X0045805Y0043800D01*
X0047795Y0043800D01*
X0049632Y0044561D01*
X0051039Y0045968D01*
X0051800Y0047805D01*
X0051800Y0055795D01*
X0051039Y0057632D01*
X0049632Y0059039D01*
X0047795Y0059800D01*
X0045805Y0059800D01*
X0043968Y0059039D01*
X0042561Y0057632D01*
X0041800Y0055795D01*
X0041800Y0047805D01*
X0042561Y0045968D01*
X0043968Y0044561D01*
X0042232Y0046763D02*
X0025884Y0046763D01*
X0028432Y0048361D02*
X0041800Y0048361D01*
X0041800Y0049960D02*
X0029450Y0049960D01*
X0029800Y0051558D02*
X0041800Y0051558D01*
X0041800Y0053157D02*
X0029650Y0053157D01*
X0028916Y0054755D02*
X0041800Y0054755D01*
X0042032Y0056354D02*
X0026872Y0056354D01*
X0028023Y0057952D02*
X0042881Y0057952D01*
X0045204Y0059551D02*
X0029280Y0059551D01*
X0048396Y0059551D02*
X0066112Y0059551D01*
X0063164Y0057952D02*
X0050719Y0057952D01*
X0051568Y0056354D02*
X0062258Y0056354D01*
X0062000Y0054755D02*
X0051800Y0054755D01*
X0051800Y0053157D02*
X0062000Y0053157D01*
X0062000Y0051558D02*
X0051800Y0051558D01*
X0051800Y0049960D02*
X0062000Y0049960D01*
X0062010Y0048361D02*
X0051800Y0048361D01*
X0051368Y0046763D02*
X0062451Y0046763D01*
X0063648Y0045164D02*
X0050235Y0045164D01*
X0071342Y0056354D02*
X0189000Y0056354D01*
X0189000Y0057952D02*
X0070436Y0057952D01*
X0034300Y0086800D02*
X0114300Y0086800D01*
X0046261Y0089923D02*
X0036094Y0089923D01*
X0279100Y0070740D02*
X0279500Y0070740D01*
X0279500Y0069142D02*
X0279100Y0069142D01*
X0279100Y0067543D02*
X0279500Y0067543D01*
X0279500Y0066600D02*
X0287100Y0066600D01*
X0287100Y0066422D01*
X0286982Y0065676D01*
X0286748Y0064957D01*
X0286405Y0064284D01*
X0285961Y0063673D01*
X0285427Y0063139D01*
X0284816Y0062695D01*
X0284143Y0062352D01*
X0283424Y0062118D01*
X0282678Y0062000D01*
X0279500Y0062000D01*
X0279500Y0066600D01*
X0279500Y0065945D02*
X0279100Y0065945D01*
X0279100Y0064346D02*
X0279500Y0064346D01*
X0279500Y0062748D02*
X0279100Y0062748D01*
X0284889Y0062748D02*
X0315936Y0062748D01*
X0315824Y0064346D02*
X0286437Y0064346D01*
X0287024Y0065945D02*
X0316029Y0065945D01*
X0317627Y0067543D02*
X0287042Y0067543D01*
X0286494Y0069142D02*
X0320182Y0069142D01*
X0321800Y0066800D02*
X0319300Y0064300D01*
X0316100Y0061149D02*
X0284865Y0061149D01*
X0286573Y0059551D02*
X0316100Y0059551D01*
X0316100Y0057952D02*
X0287235Y0057952D01*
X0287300Y0056354D02*
X0316100Y0056354D01*
X0321800Y0066800D02*
X0356800Y0066800D01*
X0289421Y0054755D02*
X0286865Y0054755D01*
X0285728Y0053157D02*
X0288028Y0053157D01*
D14*
X0319300Y0064300D03*
X0339300Y0081800D03*
X0354300Y0086800D03*
X0359300Y0081800D03*
X0369300Y0081800D03*
X0344300Y0091800D03*
X0349300Y0111800D03*
X0336800Y0124300D03*
X0326800Y0124300D03*
X0316800Y0124300D03*
X0314300Y0111800D03*
X0319300Y0111800D03*
X0324300Y0111800D03*
X0304300Y0111800D03*
X0269300Y0111800D03*
X0256800Y0124300D03*
X0246800Y0124300D03*
X0236800Y0124300D03*
X0224300Y0111800D03*
X0209300Y0091800D03*
X0194300Y0086800D03*
X0199300Y0081800D03*
X0184300Y0091800D03*
X0189300Y0111800D03*
X0176800Y0124300D03*
X0166800Y0124300D03*
X0156800Y0124300D03*
X0144300Y0111800D03*
X0109300Y0111800D03*
X0096800Y0124300D03*
X0086800Y0124300D03*
X0076800Y0124300D03*
X0064300Y0111800D03*
X0029300Y0111800D03*
X0016800Y0124300D03*
X0008050Y0124300D03*
X0049300Y0091800D03*
X0034300Y0086800D03*
X0039300Y0081800D03*
X0104300Y0091800D03*
X0114300Y0086800D03*
X0119300Y0081800D03*
X0129300Y0091800D03*
X0191800Y0069300D03*
X0191800Y0034300D03*
X0239300Y0026800D03*
X0244300Y0026800D03*
X0249300Y0026800D03*
X0331800Y0026800D03*
X0336800Y0021800D03*
X0359300Y0026800D03*
X0371800Y0021800D03*
X0369300Y0061800D03*
X0356800Y0066800D03*
X0289300Y0091800D03*
X0274300Y0086800D03*
X0279300Y0081800D03*
X0264300Y0091800D03*
X0384300Y0111800D03*
X0396800Y0124300D03*
X0405550Y0124300D03*
X0396800Y0159300D03*
X0376800Y0159300D03*
X0356800Y0159300D03*
X0336800Y0159300D03*
X0316800Y0159300D03*
X0296800Y0159300D03*
X0276800Y0159300D03*
X0256800Y0159300D03*
X0236800Y0159300D03*
X0216800Y0159300D03*
X0196800Y0159300D03*
X0176800Y0159300D03*
X0156800Y0159300D03*
X0136800Y0159300D03*
X0116800Y0159300D03*
X0096800Y0159300D03*
X0076800Y0159300D03*
X0056800Y0159300D03*
X0036800Y0159300D03*
X0016800Y0159300D03*
X0016800Y0181800D03*
X0026800Y0181800D03*
X0036800Y0181800D03*
X0046800Y0181800D03*
X0056800Y0181800D03*
X0066800Y0181800D03*
X0076800Y0181800D03*
X0086800Y0181800D03*
X0096800Y0181800D03*
X0106800Y0181800D03*
X0116800Y0181800D03*
X0126800Y0181800D03*
X0136800Y0181800D03*
X0146800Y0181800D03*
X0156800Y0181800D03*
X0166800Y0181800D03*
X0176800Y0181800D03*
X0186800Y0181800D03*
X0196800Y0181800D03*
X0206800Y0181800D03*
X0216800Y0181800D03*
X0226800Y0181800D03*
X0236800Y0181800D03*
X0246800Y0181800D03*
X0256800Y0181800D03*
X0266800Y0181800D03*
X0276800Y0181800D03*
X0286800Y0181800D03*
X0296800Y0181800D03*
X0306800Y0181800D03*
X0316800Y0181800D03*
X0326800Y0181800D03*
X0336800Y0181800D03*
X0346800Y0181800D03*
X0356800Y0181800D03*
X0366800Y0181800D03*
X0376800Y0181800D03*
X0386800Y0181800D03*
X0395550Y0181800D03*
X0405550Y0181800D03*
X0121800Y0051800D03*
X0121800Y0046800D03*
X0114300Y0046800D03*
X0114300Y0051800D03*
X0114300Y0031800D03*
X0121800Y0031800D03*
X0121800Y0026800D03*
X0114300Y0026800D03*
X0008050Y0181800D03*
D15*
X0161800Y0086800D03*
X0239300Y0081800D03*
X0291800Y0051800D03*
X0309300Y0031800D03*
D16*
X0314300Y0026800D02*
X0319300Y0031800D01*
X0319300Y0064300D01*
X0314300Y0026800D02*
X0249300Y0026800D01*
X0244300Y0026800D01*
X0239300Y0026800D01*
X0224300Y0111800D02*
X0189300Y0111800D01*
X0144300Y0111800D01*
X0109300Y0111800D01*
X0064300Y0111800D01*
X0029300Y0111800D01*
X0224300Y0111800D02*
X0269300Y0111800D01*
X0304300Y0111800D01*
X0319300Y0111800D01*
X0349300Y0111800D01*
X0384300Y0111800D01*
M02*
