%
M48
M72
T01C0.01969
T02C0.02362
T03C0.02400
T04C0.04000
T05C0.11024
%
T01
X114300Y26800
X121800Y26800
X121800Y31800
X114300Y31800
X114300Y46800
X114300Y51800
X121800Y51800
X121800Y46800
X119300Y81800
X114300Y86800
X104300Y91800
X129300Y91800
X144300Y111800
X156800Y124300
X166800Y124300
X176800Y124300
X189300Y111800
X184300Y91800
X194300Y86800
X199300Y81800
X209300Y91800
X224300Y111800
X236800Y124300
X246800Y124300
X256800Y124300
X269300Y111800
X304300Y111800
X314300Y111800
X319300Y111800
X324300Y111800
X326800Y124300
X336800Y124300
X316800Y124300
X349300Y111800
X384300Y111800
X396800Y124300
X405550Y124300
X344300Y91800
X354300Y86800
X359300Y81800
X369300Y81800
X356800Y66800
X369300Y61800
X339300Y81800
X319300Y64300
X279300Y81800
X274300Y86800
X264300Y91800
X289300Y91800
X191800Y69300
X191800Y34300
X239300Y26800
X244300Y26800
X249300Y26800
X331800Y26800
X336800Y21800
X359300Y26800
X371800Y21800
X109300Y111800
X96800Y124300
X86800Y124300
X76800Y124300
X64300Y111800
X29300Y111800
X16800Y124300
X8050Y124300
X49300Y91800
X34300Y86800
X39300Y81800
X36800Y159300
X16800Y159300
X56800Y159300
X76800Y159300
X96800Y159300
X116800Y159300
X136800Y159300
X156800Y159300
X176800Y159300
X196800Y159300
X216800Y159300
X236800Y159300
X256800Y159300
X276800Y159300
X296800Y159300
X316800Y159300
X336800Y159300
X356800Y159300
X376800Y159300
X396800Y159300
X395550Y181800
X386800Y181800
X376800Y181800
X366800Y181800
X356800Y181800
X346800Y181800
X336800Y181800
X326800Y181800
X316800Y181800
X306800Y181800
X296800Y181800
X286800Y181800
X276800Y181800
X266800Y181800
X256800Y181800
X246800Y181800
X236800Y181800
X226800Y181800
X216800Y181800
X206800Y181800
X196800Y181800
X186800Y181800
X176800Y181800
X166800Y181800
X156800Y181800
X146800Y181800
X136800Y181800
X126800Y181800
X116800Y181800
X106800Y181800
X96800Y181800
X86800Y181800
X76800Y181800
X66800Y181800
X56800Y181800
X46800Y181800
X36800Y181800
X26800Y181800
X16800Y181800
X8050Y181800
X405550Y181800
T02
X161800Y86800
X239300Y81800
X291800Y51800
X309300Y31800
T03
X89300Y51800
X99300Y51800
X161800Y99300
X239300Y99300
X319300Y99300
X374300Y89300
T04
X21800Y41800
X21800Y51800
X21800Y61800
X46800Y51800
X66800Y51800
X79300Y69300
X89300Y69300
X99300Y69300
X109300Y69300
X279300Y66800
X279300Y56800
X279300Y41800
X279300Y31800
X279300Y21800
X391800Y194300
X381800Y194300
X371800Y194300
X361800Y194300
X351800Y194300
X341800Y194300
X331800Y194300
X321800Y194300
X311800Y194300
X301800Y194300
X291800Y194300
X281800Y194300
X271800Y194300
X261800Y194300
X251800Y194300
X241800Y194300
X231800Y194300
X221800Y194300
X211800Y194300
X201800Y194300
X191800Y194300
X181800Y194300
X171800Y194300
X161800Y194300
X151800Y194300
X141800Y194300
X131800Y194300
X121800Y194300
X111800Y194300
X101800Y194300
X91800Y194300
X81800Y194300
X71800Y194300
X61800Y194300
X51800Y194300
X41800Y194300
X31800Y194300
X21800Y194300
X11800Y194300
X401800Y194300
T05
X18050Y19300
X394300Y89300
M30
